<svg xmlns="http://www.w3.org/2000/svg" xmlns:xlink="http://www.w3.org/1999/xlink" viewBox="0 0 2815.75 2800"><defs><style>.cls-1,.cls-21{fill:#c9e265;}.cls-2{fill:#7f9133;}.cls-3{fill:url(#linear-gradient);}.cls-4{fill:#bdd0fb;}.cls-5{fill:#008037;}.cls-22,.cls-6{fill:#7ed957;}.cls-7{fill:url(#linear-gradient-2);}.cls-8{fill:url(#linear-gradient-3);}.cls-9{fill:url(#linear-gradient-4);}.cls-10{fill:url(#linear-gradient-5);}.cls-11{fill:url(#linear-gradient-6);}.cls-12{fill:url(#linear-gradient-7);}.cls-13{fill:url(#linear-gradient-8);}.cls-14{fill:url(#linear-gradient-9);}.cls-15{fill:url(#linear-gradient-10);}.cls-16{fill:url(#linear-gradient-11);}.cls-17{fill:url(#linear-gradient-12);}.cls-18{fill:url(#linear-gradient-13);}.cls-19,.cls-74,.cls-76{fill:#fff;}.cls-19{opacity:0.57;}.cls-20{fill:#02421d;}.cls-21{opacity:0.2;}.cls-22{opacity:0.63;}.cls-23{fill:url(#linear-gradient-14);}.cls-24{fill:url(#linear-gradient-15);}.cls-25{fill:url(#linear-gradient-16);}.cls-26{fill:url(#linear-gradient-17);}.cls-27{fill:url(#linear-gradient-18);}.cls-28{fill:url(#linear-gradient-19);}.cls-29{fill:url(#linear-gradient-20);}.cls-30{fill:url(#linear-gradient-21);}.cls-31{fill:url(#linear-gradient-22);}.cls-32{fill:url(#linear-gradient-23);}.cls-33{fill:url(#linear-gradient-24);}.cls-34{fill:url(#linear-gradient-25);}.cls-35{fill:url(#linear-gradient-26);}.cls-36{fill:url(#linear-gradient-27);}.cls-37{fill:#023517;}.cls-38{opacity:0.15;}.cls-39{fill:#7d97f4;}.cls-40{fill:url(#linear-gradient-28);}.cls-41{fill:url(#linear-gradient-29);}.cls-42{fill:url(#linear-gradient-30);}.cls-43{fill:url(#linear-gradient-31);}.cls-44{fill:url(#linear-gradient-32);}.cls-45{fill:url(#linear-gradient-33);}.cls-46{fill:url(#linear-gradient-34);}.cls-47{fill:url(#linear-gradient-35);}.cls-48{fill:url(#linear-gradient-36);}.cls-49{fill:url(#linear-gradient-37);}.cls-50{fill:url(#linear-gradient-38);}.cls-51{fill:url(#linear-gradient-39);}.cls-52{fill:url(#linear-gradient-40);}.cls-53{fill:url(#linear-gradient-41);}.cls-54{fill:url(#linear-gradient-42);}.cls-55{fill:url(#linear-gradient-43);}.cls-56{fill:url(#linear-gradient-44);}.cls-57{fill:url(#linear-gradient-45);}.cls-58{fill:url(#linear-gradient-46);}.cls-59{fill:url(#linear-gradient-47);}.cls-60{fill:url(#linear-gradient-48);}.cls-61{fill:url(#linear-gradient-49);}.cls-62{fill:url(#linear-gradient-50);}.cls-63{fill:url(#linear-gradient-51);}.cls-64{fill:url(#linear-gradient-52);}.cls-65{fill:url(#linear-gradient-53);}.cls-66{fill:url(#linear-gradient-54);}.cls-67{fill:url(#linear-gradient-55);}.cls-68{fill:url(#linear-gradient-56);}.cls-69{fill:url(#linear-gradient-57);}.cls-70{fill:url(#linear-gradient-58);}.cls-71{fill:url(#linear-gradient-59);}.cls-72{fill:url(#linear-gradient-60);}.cls-73{fill:url(#linear-gradient-61);}.cls-75{fill:url(#linear-gradient-62);}.cls-76{opacity:0.78;}.cls-77{fill:url(#linear-gradient-63);}.cls-78{fill:url(#linear-gradient-64);}.cls-79{fill:url(#linear-gradient-65);}</style><linearGradient id="linear-gradient" x1="-2352.24" y1="499.95" x2="-5498.37" y2="2749.25" gradientTransform="matrix(-1, 0, 0, 1, -2393.16, 0)" gradientUnits="userSpaceOnUse"><stop offset="0" stop-color="#dae3fe"/><stop offset="1" stop-color="#e9effd"/></linearGradient><linearGradient id="linear-gradient-2" x1="1348.77" y1="1167.82" x2="1405.56" y2="1167.82" gradientTransform="matrix(1, 0, 0, 1, 0, 0)" xlink:href="#linear-gradient"/><linearGradient id="linear-gradient-3" x1="1443.66" y1="1209.38" x2="1500.45" y2="1209.38" gradientTransform="matrix(1, 0, 0, 1, 0, 0)" xlink:href="#linear-gradient"/><linearGradient id="linear-gradient-4" x1="1538.56" y1="1106.66" x2="1595.35" y2="1106.66" gradientTransform="matrix(1, 0, 0, 1, 0, 0)" xlink:href="#linear-gradient"/><linearGradient id="linear-gradient-5" x1="1633.45" y1="1245.01" x2="1690.24" y2="1245.01" gradientTransform="matrix(1, 0, 0, 1, 0, 0)" xlink:href="#linear-gradient"/><linearGradient id="linear-gradient-6" x1="1728.34" y1="1131" x2="1785.13" y2="1131" gradientTransform="matrix(1, 0, 0, 1, 0, 0)" xlink:href="#linear-gradient"/><linearGradient id="linear-gradient-7" x1="1823.23" y1="1158.32" x2="1880.02" y2="1158.32" gradientTransform="matrix(1, 0, 0, 1, 0, 0)" xlink:href="#linear-gradient"/><linearGradient id="linear-gradient-8" x1="1918.12" y1="1188.01" x2="1974.91" y2="1188.01" gradientTransform="matrix(1, 0, 0, 1, 0, 0)" xlink:href="#linear-gradient"/><linearGradient id="linear-gradient-9" x1="2013.01" y1="1069.84" x2="2069.8" y2="1069.84" gradientTransform="matrix(1, 0, 0, 1, 0, 0)" xlink:href="#linear-gradient"/><linearGradient id="linear-gradient-10" x1="2107.9" y1="1093" x2="2164.69" y2="1093" gradientTransform="matrix(1, 0, 0, 1, 0, 0)" xlink:href="#linear-gradient"/><linearGradient id="linear-gradient-11" x1="2202.79" y1="1128.03" x2="2259.58" y2="1128.03" gradientTransform="matrix(1, 0, 0, 1, 0, 0)" xlink:href="#linear-gradient"/><linearGradient id="linear-gradient-12" x1="2297.68" y1="1249.07" x2="2354.47" y2="1249.07" gradientTransform="matrix(1, 0, 0, 1, 0, 0)" xlink:href="#linear-gradient"/><linearGradient id="linear-gradient-13" x1="2392.58" y1="1171.97" x2="2449.37" y2="1171.97" gradientTransform="matrix(1, 0, 0, 1, 0, 0)" xlink:href="#linear-gradient"/><linearGradient id="linear-gradient-14" x1="2312.53" y1="1727.5" x2="2192.23" y2="1997.23" gradientUnits="userSpaceOnUse"><stop offset="0" stop-color="#4f52ff"/><stop offset="1" stop-color="#4042e2"/></linearGradient><linearGradient id="linear-gradient-15" x1="-4072.01" y1="1959.94" x2="-3930.75" y2="1959.94" gradientTransform="matrix(-1, 0, 0, 1, -1802.87, 0)" gradientUnits="userSpaceOnUse"><stop offset="0" stop-color="#09005d"/><stop offset="1" stop-color="#1a0f91"/></linearGradient><linearGradient id="linear-gradient-16" x1="-4058.58" y1="1920.16" x2="-4017.64" y2="1920.16" gradientTransform="matrix(-1, 0, 0, 1, -1802.87, 0)" gradientUnits="userSpaceOnUse"><stop offset="0" stop-color="#febbba"/><stop offset="1" stop-color="#ff928e"/></linearGradient><linearGradient id="linear-gradient-17" x1="2626.96" y1="1705.43" x2="2526.4" y2="1996.78" xlink:href="#linear-gradient-14"/><linearGradient id="linear-gradient-18" x1="-4361.39" y1="1942.4" x2="-4279.63" y2="1942.4" xlink:href="#linear-gradient-15"/><linearGradient id="linear-gradient-19" x1="-4318.89" y1="1886.03" x2="-4269.96" y2="1886.03" xlink:href="#linear-gradient-16"/><linearGradient id="linear-gradient-20" x1="2871.46" y1="548.21" x2="2211.75" y2="1828.18" xlink:href="#linear-gradient-14"/><linearGradient id="linear-gradient-21" x1="-326.91" y1="-7687.64" x2="-539.56" y2="-7177.97" gradientTransform="matrix(-1, 0, 0, 1, -1802.87, 0)" gradientUnits="userSpaceOnUse"><stop offset="0" stop-color="#ff928e"/><stop offset="1" stop-color="#fe7062"/></linearGradient><linearGradient id="linear-gradient-22" x1="2523.77" y1="852.97" x2="2297.62" y2="1291.76" gradientTransform="matrix(1, 0, 0, 1, 0, 0)" xlink:href="#linear-gradient-15"/><linearGradient id="linear-gradient-23" x1="-4094.7" y1="1172.75" x2="-4268.9" y2="1327.01" xlink:href="#linear-gradient-16"/><linearGradient id="linear-gradient-24" x1="-460.76" y1="-7743.5" x2="-673.4" y2="-7233.82" xlink:href="#linear-gradient-21"/><linearGradient id="linear-gradient-25" x1="-149.84" y1="-7613.77" x2="-362.48" y2="-7104.1" xlink:href="#linear-gradient-21"/><linearGradient id="linear-gradient-26" x1="-3768.15" y1="1187.34" x2="-3630.96" y2="1187.34" xlink:href="#linear-gradient-16"/><linearGradient id="linear-gradient-27" x1="-3901.5" y1="820.72" x2="-3903" y2="1076.91" xlink:href="#linear-gradient-16"/><linearGradient id="linear-gradient-28" x1="-4040.63" y1="1777.45" x2="-4166.74" y2="1944.27" gradientTransform="matrix(-0.99, -0.14, -0.14, 0.99, -1729.7, -1557.54)" xlink:href="#linear-gradient-16"/><linearGradient id="linear-gradient-29" x1="-5074.07" y1="806.05" x2="-4636.53" y2="861.37" gradientTransform="matrix(-1, 0, 0, 1, -2943.6, 0)" xlink:href="#linear-gradient-15"/><linearGradient id="linear-gradient-30" x1="-4225.33" y1="1909.56" x2="-4124.18" y2="1805.79" gradientTransform="matrix(-0.99, -0.14, -0.14, 0.99, -1729.7, -1557.54)" xlink:href="#linear-gradient-16"/><linearGradient id="linear-gradient-31" x1="-4025.91" y1="1250.43" x2="-4200.11" y2="1404.69" xlink:href="#linear-gradient-16"/><linearGradient id="linear-gradient-32" x1="-3645.53" y1="1171.23" x2="-3596.41" y2="1171.23" xlink:href="#linear-gradient-16"/><linearGradient id="linear-gradient-33" x1="509.64" y1="2411.83" x2="428.63" y2="2634.6" gradientTransform="matrix(1, 0, 0, 1, 0, 0)" xlink:href="#linear-gradient-15"/><linearGradient id="linear-gradient-34" x1="6289.66" y1="2716.77" x2="6330.93" y2="2716.77" gradientTransform="translate(-5986.4)" xlink:href="#linear-gradient-16"/><linearGradient id="linear-gradient-35" x1="6107" y1="2590.51" x2="6773.63" y2="1766.71" gradientTransform="translate(-5986.4)" xlink:href="#linear-gradient-15"/><linearGradient id="linear-gradient-36" x1="6336.24" y1="2583.42" x2="5871.63" y2="3088.78" gradientTransform="translate(-5986.4)" xlink:href="#linear-gradient-15"/><linearGradient id="linear-gradient-37" x1="6140.93" y1="2714.66" x2="6176.56" y2="2714.66" gradientTransform="translate(-5986.4)" xlink:href="#linear-gradient-16"/><linearGradient id="linear-gradient-38" x1="6041.64" y1="2537.61" x2="6708.26" y2="1713.82" gradientTransform="translate(-5986.4)" xlink:href="#linear-gradient-15"/><linearGradient id="linear-gradient-39" x1="679.09" y1="1241.73" x2="269.01" y2="1839.13" gradientTransform="matrix(1, 0, 0, 1, 0, 0)" xlink:href="#linear-gradient-21"/><linearGradient id="linear-gradient-40" x1="6459.49" y1="1640.12" x2="6670.32" y2="1640.12" gradientTransform="translate(-5986.4)" xlink:href="#linear-gradient-16"/><linearGradient id="linear-gradient-41" x1="2823.34" y1="1604.77" x2="2964.82" y2="1926.67" gradientTransform="matrix(-1, 0, 0, 1, 3460.3, 0)" xlink:href="#linear-gradient-16"/><linearGradient id="linear-gradient-42" x1="6669.31" y1="1497.57" x2="6728.34" y2="1406.81" gradientTransform="translate(-5986.4)" xlink:href="#linear-gradient-16"/><linearGradient id="linear-gradient-43" x1="557.3" y1="1158.13" x2="147.22" y2="1755.53" gradientTransform="matrix(1, 0, 0, 1, 0, 0)" xlink:href="#linear-gradient-21"/><linearGradient id="linear-gradient-44" x1="5998.13" y1="1938.76" x2="6264.95" y2="1938.76" gradientTransform="translate(-5986.4)" xlink:href="#linear-gradient-16"/><linearGradient id="linear-gradient-45" x1="249.43" y1="1887.11" x2="531.65" y2="1887.11" xlink:href="#linear-gradient-14"/><linearGradient id="linear-gradient-46" x1="398.36" y1="1412.94" x2="418.61" y2="1650.88" gradientTransform="matrix(1, 0, 0, 1, 0, 0)" xlink:href="#linear-gradient-15"/><linearGradient id="linear-gradient-47" x1="393.06" y1="1413.39" x2="413.31" y2="1651.34" gradientTransform="matrix(1, 0, 0, 1, 0, 0)" xlink:href="#linear-gradient-15"/><linearGradient id="linear-gradient-48" x1="6245.14" y1="1910.78" x2="6328.26" y2="1910.78" gradientTransform="translate(-5986.4)" xlink:href="#linear-gradient-16"/><linearGradient id="linear-gradient-49" x1="6203.01" y1="1653.52" x2="6308.5" y2="1653.52" gradientTransform="translate(-5986.4)" xlink:href="#linear-gradient-16"/><linearGradient id="linear-gradient-50" x1="-1149.05" y1="2793.69" x2="-1188.47" y2="2663.67" gradientTransform="matrix(0.75, -0.67, 0.67, 0.75, -655.93, -1262.84)" xlink:href="#linear-gradient-16"/><linearGradient id="linear-gradient-51" x1="-1184.62" y1="2567.15" x2="-1151.64" y2="2755.23" gradientTransform="matrix(0.75, -0.67, 0.67, 0.75, -655.93, -1262.84)" xlink:href="#linear-gradient-15"/><linearGradient id="linear-gradient-52" x1="-1189.35" y1="2793.09" x2="-1224.82" y2="2676.1" gradientTransform="matrix(0.75, -0.67, 0.67, 0.75, -655.93, -1262.84)" xlink:href="#linear-gradient-16"/><linearGradient id="linear-gradient-53" x1="3673.82" y1="692.72" x2="2833.41" y2="1573.63" gradientTransform="matrix(1, 0, 0, 1, 0, 0)" xlink:href="#linear-gradient-15"/><linearGradient id="linear-gradient-54" x1="3755.71" y1="770.84" x2="2915.3" y2="1651.76" gradientTransform="matrix(1, 0, 0, 1, 0, 0)" xlink:href="#linear-gradient-15"/><linearGradient id="linear-gradient-55" x1="3964.21" y1="969.75" x2="3123.8" y2="1850.66" gradientTransform="matrix(1, 0, 0, 1, 0, 0)" xlink:href="#linear-gradient-15"/><linearGradient id="linear-gradient-56" x1="3821.17" y1="833.29" x2="2980.76" y2="1714.21" gradientTransform="matrix(1, 0, 0, 1, 0, 0)" xlink:href="#linear-gradient-15"/><linearGradient id="linear-gradient-57" x1="3632.91" y1="615.41" x2="2780.21" y2="1509.2" gradientTransform="translate(4612.51 4012.01) rotate(-180)" xlink:href="#linear-gradient-15"/><linearGradient id="linear-gradient-58" x1="3717.19" y1="734.09" x2="2876.78" y2="1615.01" gradientTransform="matrix(1, 0, 0, 1, 0, 0)" xlink:href="#linear-gradient-15"/><linearGradient id="linear-gradient-59" x1="3848.58" y1="859.44" x2="3008.17" y2="1740.35" gradientTransform="matrix(1, 0, 0, 1, 0, 0)" xlink:href="#linear-gradient-15"/><linearGradient id="linear-gradient-60" x1="3982.05" y1="986.78" x2="3141.64" y2="1867.69" gradientTransform="matrix(1, 0, 0, 1, 0, 0)" xlink:href="#linear-gradient-15"/><linearGradient id="linear-gradient-61" x1="4114.03" y1="1112.69" x2="3273.62" y2="1993.6" gradientTransform="matrix(1, 0, 0, 1, 0, 0)" xlink:href="#linear-gradient-15"/><linearGradient id="linear-gradient-62" x1="69.2" y1="767.84" x2="221.7" y2="590.83" gradientTransform="matrix(0.54, 0.84, -0.84, 0.54, 876.32, 697.61)" xlink:href="#linear-gradient-21"/><linearGradient id="linear-gradient-63" x1="50.23" y1="476.62" x2="299.12" y2="187.73" gradientTransform="translate(310.33 606.84) rotate(2.94)" xlink:href="#linear-gradient-21"/><linearGradient id="linear-gradient-64" x1="309.89" y1="817.16" x2="565.99" y2="519.9" gradientTransform="translate(853.31 381.03) rotate(47.94)" xlink:href="#linear-gradient-21"/><linearGradient id="linear-gradient-65" x1="504.74" y1="358.13" x2="709.56" y2="120.39" gradientTransform="translate(1055.63 36.91) rotate(83.85)" xlink:href="#linear-gradient-21"/></defs><g id="Layer_2" data-name="Layer 2"><g id="Illustration"><path class="cls-1" d="M2697.73,1891.62c-273.19,633.68-1000.9,988.67-1632,892.91-102.69-15.58-384.21-62-633.46-281C-47.52,2082-150.13,1247.34,236.92,659.11,518.63,231,1023.63-11.71,1503.47.43c103.36,2.62,499.47,18.73,847.58,301.51,51.13,41.53,163.91,140.23,265.54,296.8C2855.26,966.41,2875.77,1478.65,2697.73,1891.62Z"/><path class="cls-2" d="M749.34,1681.93s8.31-349.39-152.61-442.9-466.9-152-478.37-653.67c-6.72-293.72-14-422.13-18.86-478.13a33.07,33.07,0,0,1,39.06-35.41C291,100.53,786.08,218.71,889.89,556.65,1013,957.27,749.34,1681.93,749.34,1681.93Z"/><path class="cls-3" d="M256.43,211.4c167.3,149.21,360.75,413.28,463.86,677.35,13.24,43.52,52,136.07,68.77,300.51,15,137.14,7.55,282.06-10.66,378a11.17,11.17,0,0,1-13.06,8.9c-10.43-2-9.05-13.2-9-12.84,20.79-163.9,12.16-367.9-35.49-552-60.87-226-196.65-445.13-337.09-631l-14.45-18.3C260.56,222.32,237.65,221.3,247.82,211.56A6.36,6.36,0,0,1,256.43,211.4Z"/><path class="cls-2" d="M1008,2353.68c21.77,10.68-206.12-275.9-277.51-726-33.64-212.09-34.08-477.83-154.9-580.23C475,962.22,132.83,1016,20.87,1036.47a16.79,16.79,0,0,0-7.81,29.38c53.69,45.09,168.54,151.44,198.47,258.63,39.44,141.29,173.76,231.15,294,255.47s187.15,47.92,245.73,240.23S946.09,2323.35,1008,2353.68Z"/><path class="cls-4" d="M178.33,1096.17c142.84,6,296.17,71.14,374,193.37l7.34,11.66c17,27.35,113.1,221.76,166.49,382.91a3.85,3.85,0,0,1-2.43,4.85,3.91,3.91,0,0,1-4.8-2.3c-37.2-91-90.63-206.46-133.18-292.78-45.63-94.19-77.56-158-181.65-219.08-115.85-65.8-226.52-72.57-226.19-72.5a3.07,3.07,0,0,1,.44-6.13Z"/><path class="cls-5" d="M2536.8,2690.64H679.2c-60.46,0-109.81-49.52-111-111.4L521.85,167.73c-1.2-62.65,47.37-114.47,108.58-115.84l1904-42.53C2596.63,8,2647.82,59.24,2647.82,123V2577C2647.82,2639.76,2598.12,2690.64,2536.8,2690.64Z"/><path class="cls-6" d="M747,347.14H2454.3A66.85,66.85,0,0,1,2521.15,414V2505.56a66.84,66.84,0,0,1-66.84,66.84H747a66.84,66.84,0,0,1-66.84-66.84V414A66.85,66.85,0,0,1,747,347.14Z"/><rect class="cls-4" x="1431.74" y="444.25" width="1017.63" height="80.23"/><rect class="cls-4" x="1431.74" y="558.26" width="1017.63" height="46.45"/><rect class="cls-4" x="1431.74" y="638.49" width="1017.63" height="46.45"/><rect class="cls-4" x="1431.74" y="718.72" width="1017.63" height="46.45"/><rect class="cls-4" x="811.03" y="1449.22" width="582.71" height="80.23"/><rect class="cls-4" x="811.03" y="1563.22" width="582.71" height="46.45"/><rect class="cls-4" x="811.03" y="1643.45" width="582.71" height="46.45"/><rect class="cls-4" x="811.03" y="1723.68" width="582.71" height="46.45"/><rect class="cls-7" x="1348.77" y="1046.87" width="56.79" height="241.89"/><rect class="cls-8" x="1443.66" y="1130.01" width="56.79" height="158.75"/><rect class="cls-9" x="1538.56" y="924.55" width="56.79" height="364.21"/><rect class="cls-10" x="1633.45" y="1201.26" width="56.79" height="87.5"/><rect class="cls-11" x="1728.34" y="973.24" width="56.79" height="315.52"/><rect class="cls-12" x="1823.23" y="1027.87" width="56.79" height="260.89"/><rect class="cls-13" x="1918.12" y="1087.25" width="56.79" height="201.51"/><rect class="cls-14" x="2013.01" y="850.92" width="56.79" height="437.84"/><rect class="cls-15" x="2107.9" y="897.24" width="56.79" height="391.52"/><rect class="cls-16" x="2202.79" y="967.31" width="56.79" height="321.45"/><rect class="cls-17" x="2297.68" y="1209.38" width="56.79" height="79.38"/><rect class="cls-18" x="2392.58" y="1055.19" width="56.79" height="233.57"/><rect class="cls-4" x="811.03" y="2424.62" width="1638.34" height="46.45"/><rect class="cls-4" x="811.03" y="444.25" width="464.64" height="844.5" rx="65.98"/><rect class="cls-19" x="815.25" y="1854.58" width="578.49" height="498.26" rx="17"/><path class="cls-1" d="M1971.92,1898.52a24,24,0,0,1-23.62-28.28L2020.75,1469a24,24,0,0,1,28.07-19.33c181.82,34.2,322.72,180,350.61,362.75a24,24,0,0,1-20.29,27.38l-403.77,58.52A23.55,23.55,0,0,1,1971.92,1898.52Z"/><path class="cls-1" d="M1865.6,2344.39c-196.68,0-356.7-160-356.7-356.7s160-356.7,356.7-356.7a358.64,358.64,0,0,1,66.27,6.25,24,24,0,0,1,19.18,27.86l-52.47,290.62L2191,1913.33a24.05,24.05,0,0,1,27.18,20.14,360.47,360.47,0,0,1,4.1,54.22C2222.3,2184.38,2062.29,2344.39,1865.6,2344.39Z"/><path class="cls-20" d="M391.23,1446.57c-6.24,222.54-26.45,990.17-16.8,1262.19,1,28.82,27.12,51.95,59.67,52.89,161,4.67,751.17,16.49,1014.5,6.71,54.84-2,98.46-41.37,99.6-90,5.47-233.59,17.54-890.57-11.15-1191.54-3.44-36.06-35.41-64.77-76.08-68.38C1285.64,1403,692.92,1365,465.42,1378.07,424.39,1380.43,392.24,1410.18,391.23,1446.57Z"/><rect class="cls-6" x="437.46" y="1479.2" width="1032.03" height="319.56" rx="65.48"/><path class="cls-21" d="M1423.54,1543.61a43.14,43.14,0,0,0-30.34-13.15l-843.14-13.4a43.16,43.16,0,0,0-43.66,39.13l-17.52,187.06c-1.44,15.31,23.76,28.21,55.88,28.6l828.93,10c32.07.39,58.59-11.84,58.85-27.15l3.13-180.38A43.17,43.17,0,0,0,1423.54,1543.61Z"/><path class="cls-6" d="M662.73,1990a60.25,60.25,0,0,1-60.25,60.25H529.14A60.25,60.25,0,0,1,468.9,1990h0a60.24,60.24,0,0,1,60.24-60.24h73.34A60.24,60.24,0,0,1,662.73,1990Z"/><path class="cls-6" d="M935.14,1990a60.25,60.25,0,0,1-60.24,60.25H801.56A60.25,60.25,0,0,1,741.31,1990h0a60.24,60.24,0,0,1,60.25-60.24H874.9A60.24,60.24,0,0,1,935.14,1990Z"/><path class="cls-6" d="M1197.08,1990a60.25,60.25,0,0,1-60.24,60.25h-73.35a60.25,60.25,0,0,1-60.24-60.25h0a60.24,60.24,0,0,1,60.24-60.24h73.35a60.24,60.24,0,0,1,60.24,60.24Z"/><path class="cls-6" d="M1462.61,1998.83a61.22,61.22,0,0,1-61.22,61.22H1330.5a61.22,61.22,0,0,1-61.22-61.22h0a61.22,61.22,0,0,1,61.22-61.23h70.89a61.22,61.22,0,0,1,61.22,61.23Z"/><path class="cls-6" d="M662.73,2178.58a60.24,60.24,0,0,1-60.25,60.24H529.14a60.24,60.24,0,0,1-60.24-60.24h0a60.24,60.24,0,0,1,60.24-60.25h73.34a60.24,60.24,0,0,1,60.25,60.25Z"/><path class="cls-6" d="M935.14,2178.58a60.24,60.24,0,0,1-60.24,60.24H801.56a60.24,60.24,0,0,1-60.25-60.24h0a60.24,60.24,0,0,1,60.25-60.25H874.9a60.24,60.24,0,0,1,60.24,60.25Z"/><path class="cls-6" d="M1197.08,2178.58a60.24,60.24,0,0,1-60.24,60.24h-73.35a60.24,60.24,0,0,1-60.24-60.24h0a60.24,60.24,0,0,1,60.24-60.25h73.35a60.24,60.24,0,0,1,60.24,60.25Z"/><path class="cls-6" d="M1469.5,2178.58a60.25,60.25,0,0,1-60.25,60.24h-73.34a60.25,60.25,0,0,1-60.25-60.24h0a60.25,60.25,0,0,1,60.25-60.25h73.34a60.25,60.25,0,0,1,60.25,60.25Z"/><path class="cls-22" d="M662.73,2345.6a60.24,60.24,0,0,1-60.25,60.25H529.14a60.24,60.24,0,0,1-60.24-60.25h0a60.24,60.24,0,0,1,60.24-60.24h73.34a60.24,60.24,0,0,1,60.25,60.24Z"/><path class="cls-22" d="M935.14,2345.6a60.24,60.24,0,0,1-60.24,60.25H801.56a60.24,60.24,0,0,1-60.25-60.25h0a60.24,60.24,0,0,1,60.25-60.24H874.9a60.24,60.24,0,0,1,60.24,60.24Z"/><path class="cls-22" d="M1197.08,2345.6a60.24,60.24,0,0,1-60.24,60.25h-73.35a60.24,60.24,0,0,1-60.24-60.25h0a60.24,60.24,0,0,1,60.24-60.24h73.35a60.24,60.24,0,0,1,60.24,60.24Z"/><path class="cls-22" d="M662.73,2529a60.24,60.24,0,0,1-60.25,60.24H529.14A60.24,60.24,0,0,1,468.9,2529h0a60.25,60.25,0,0,1,60.24-60.25h73.34A60.25,60.25,0,0,1,662.73,2529Z"/><path class="cls-22" d="M935.14,2529a60.24,60.24,0,0,1-60.24,60.24H801.56A60.24,60.24,0,0,1,741.31,2529h0a60.25,60.25,0,0,1,60.25-60.25H874.9A60.25,60.25,0,0,1,935.14,2529Z"/><path class="cls-22" d="M1197.08,2529a60.24,60.24,0,0,1-60.24,60.24h-73.35a60.24,60.24,0,0,1-60.24-60.24h0a60.25,60.25,0,0,1,60.24-60.25h73.35a60.25,60.25,0,0,1,60.24,60.25Z"/><rect class="cls-6" x="1286.14" y="2301.69" width="157.16" height="298.61" rx="76.26"/><path class="cls-23" d="M2127.87,1981.4c24.91,2.15,68.13,5.65,102.2,7.15,20.48.9,32.27-1.11,39.06-3.83q0,1.15-.06,2.16a7,7,0,0,1-6.7,6.66,1197.3,1197.3,0,0,1-133.81.13,5,5,0,0,1-4.09-7.53A42,42,0,0,1,2127.87,1981.4Z"/><path class="cls-24" d="M2230.07,1988.55c-34.07-1.5-77.29-5-102.2-7.15,24.49-30,102.2-50.29,102.2-50.29H2252c15.09,21.76,17.28,42.48,17.11,53.61C2262.34,1987.44,2250.55,1989.45,2230.07,1988.55Z"/><path class="cls-25" d="M2255.71,1895.28l-2.05,40.65a9.28,9.28,0,0,1-7.93,8.73,36.22,36.22,0,0,1-16.48-1.37,11,11,0,0,1-7.39-8.44l-7.09-39.57Z"/><path class="cls-26" d="M2540.79,1988.24c10.8-1.5,15.68-7.11,17.73-13.11l0,.16c1.59,6.33-2.09,12.88-9.46,16-8.9,3.77-18.63,4.41-26.18,4.1-8.11-.33-15.55-3.69-19.64-9.06l-.06-.08C2511.36,1990.28,2522.78,1990.75,2540.79,1988.24Z"/><path class="cls-27" d="M2489.87,1895H2508c27.57-.56,44.88,57.59,50.55,80.11-2.05,6-6.93,11.61-17.73,13.11-18,2.51-29.43,2-37.57-2-14.89-19.6-22.28-48.3-25.83-65.06C2473.35,1902.14,2489.87,1895,2489.87,1895Z"/><path class="cls-28" d="M2505.64,1857.3l10.06,40a10.87,10.87,0,0,1-5.65,12.3c-5.62,2.88-13.54,5.92-20.81,5a9.05,9.05,0,0,1-7.4-6l-14.75-42Z"/><path class="cls-29" d="M2517.63,1868.85c-12.5,11.09-53.17,12.56-53.17,12.56-146.52-351.64-206.45-401.6-206.45-401.6,21.16,132.73,3.41,426.57,3.41,426.57-24.18,10.66-55.35,0-55.35,0a2265.1,2265.1,0,0,0-74.81-556.19c99-2.22,151.68-36.11,168.88-49.71C2382.68,1433.56,2517.63,1868.85,2517.63,1868.85Z"/><path class="cls-30" d="M2275,896.09c18.74,93.49,12,260.83,7.61,337.15-1.24,21.45,13.74,51.19,25.84,71.48a6.36,6.36,0,0,1-2.57,9c-20.26,10.42-88.92,42.7-168.49,46.71a11.33,11.33,0,0,1-11.41-8.47c-59-220.39-127.58-361.21-127.58-361.21C2074.08,869.83,2275,896.09,2275,896.09Z"/><path class="cls-31" d="M2248,1471.49a4.7,4.7,0,0,0,4-7.13c-.79-1.3-19.74-31.93-58.09-50.43a4.69,4.69,0,1,0-4.08,8.44c35.75,17.26,54,46.57,54.15,46.87A4.72,4.72,0,0,0,2248,1471.49Z"/><path class="cls-32" d="M2392.55,1164.41c-6,43.55-23.81,91.06-59.39,141.52l-13.53-11s15.62-63.35,6.74-135.25C2348.32,1155.37,2374.25,1159.78,2392.55,1164.41Z"/><path class="cls-33" d="M2254.05,1011.45,2275,896.09s139.87,106.92,117.56,268.32c-18.3-4.63-44.23-9-66.18-4.76C2320,1107.85,2300.88,1051.63,2254.05,1011.45Z"/><path class="cls-34" d="M1998.39,990.7l54,116.28c-8.73,70.2-46.44,100.55-87.1,112.19a246.78,246.78,0,0,0-18.14-75.72C1999.1,1089.81,1998.39,990.7,1998.39,990.7Z"/><path class="cls-35" d="M1947.14,1143.45a246.78,246.78,0,0,1,18.14,75.72c-108.49,42.09-137.19-39.54-137.19-39.54l20.05-3.53C1893.41,1180.87,1925,1166.27,1947.14,1143.45Z"/><path class="cls-36" d="M2048.13,847.14,2074.2,943a18.64,18.64,0,0,0,24.93,12.41,378.86,378.86,0,0,0,37.57-17.16,25.13,25.13,0,0,0,8.86-36.1l-54.2-80.81Z"/><path class="cls-37" d="M1778.37,1115.51l667.9,243.09a51.15,51.15,0,0,1,29.06,69.23l-2,4.46a47.54,47.54,0,0,1-63.24,23.46l-648.52-300Z"/><g class="cls-38"><ellipse class="cls-39" cx="1471.37" cy="969.29" rx="329.71" ry="323.76"/></g><path class="cls-37" d="M1104.49,969.29c0,199,159.75,360.26,356.81,360.26s356.8-161.3,356.8-360.26S1658.35,609,1461.3,609,1104.49,770.32,1104.49,969.29Zm52.41,0c0-169.74,136.28-307.34,304.4-307.34s304.39,137.6,304.39,307.34-136.28,307.34-304.39,307.34S1156.9,1139,1156.9,969.29Z"/><path class="cls-4" d="M1810.36,1013.14l-.22,0a1.68,1.68,0,0,1-1.46-1.88c1.08-8.45,1.83-17,2.25-25.51a1.69,1.69,0,1,1,3.37.16c-.42,8.57-1.19,17.24-2.27,25.77A1.69,1.69,0,0,1,1810.36,1013.14Zm-2.53-100.74a1.67,1.67,0,0,1-1.65-1.39,327.66,327.66,0,0,0-19.55-66.88h0c-52.25-126.74-176-208.64-315.26-208.64a343.47,343.47,0,0,0-182.58,52.17,1.69,1.69,0,0,1-1.79-2.86,346.8,346.8,0,0,1,184.37-52.68c140.64,0,265.61,82.71,318.38,210.73h0a330.78,330.78,0,0,1,19.75,67.58,1.7,1.7,0,0,1-1.37,2Z"/><path class="cls-40" d="M1991.11,774.34c-.24,1.65,21.74,109.35,21.74,109.35l61.23-13.86-5.67-105.17S1995.08,746.8,1991.11,774.34Z"/><path class="cls-41" d="M2054.64,788.1l7.32,55.13a7.85,7.85,0,0,1,0,2.11c-.62,4.32-3.83,19-18.68,14.82-13.48-3.81-25.84-7.1-34.37-4.49a7.77,7.77,0,0,0-5.34,9c2,9.79,6.91,31.75,14.09,50.19a7.75,7.75,0,0,0,9.41,4.58c11.61-3.39,35.9-11.21,54-22.09a7.76,7.76,0,0,0,3.79-7c-.59-13.91-2.22-56.22-.85-68.08,1.29-11.13,15-17.8,20.88-20.19a7.65,7.65,0,0,0,4.25-4.27c2.75-6.88,6.54-22.82-13.55-29.35a7.78,7.78,0,0,1-4.92-10.06c3-8.29,4.23-20.93-11.31-27.89-15.79-7.08-27.59,1.34-34,8.18a7.76,7.76,0,0,1-9.9,1.17c-1.82-1.15-4.16-1.52-7,.24a7.64,7.64,0,0,1-10.83-3.28c-3.78-7.77-11.49-16.08-27-13.43-27.44,4.69-30.55,35.1-23.31,52.91s36.69,11,51.47,2.05c11.24-6.83,25.81.33,32.15,4.16A7.7,7.7,0,0,1,2054.64,788.1Z"/><path class="cls-42" d="M2086.43,842.36s-11.27-31.59.31-39.32,28.76-3.72,25,19.16C2107,850.66,2086.43,842.36,2086.43,842.36Z"/><path class="cls-43" d="M2325.21,1293l-63.14-5.14-27.34,25.2s6.47,8.94,26.69,3.81,47.93-6.41,47.93-6.41,27.92,12.59,28.26-11Z"/><path class="cls-44" d="M1836.13,1194.57c-5.46,4.26-24.17-4.64-35.62-10.8a13.16,13.16,0,0,1-6.36-15.56c2.75-8.69,7.34-19.9,13-21.32C1816.53,1144.55,1858.63,1177,1836.13,1194.57Z"/><path class="cls-4" d="M2433.09,1445.63a1.69,1.69,0,0,1-.55-3.28c19.18-6.63,29.23-17.41,29.86-32,.64-14.8-8.71-28.55-23.27-34.23l-80.19-31.27a1.69,1.69,0,0,1,1.22-3.15l80.2,31.28c15.9,6.2,26.12,21.28,25.42,37.52s-11.52,28-32.13,35.08A1.82,1.82,0,0,1,2433.09,1445.63Z"/><path class="cls-4" d="M2334.84,1335.29a1.71,1.71,0,0,1-.62-.12l-10.39-4.05a1.69,1.69,0,1,1,1.23-3.14l10.39,4a1.69,1.69,0,0,1-.61,3.26Z"/><path class="cls-45" d="M307.21,2716.89s-4.81,27.23-7.17,54.2a18.58,18.58,0,0,0,17.77,20.13c35.91,1.49,112.72,4.4,140.28,3.17a6,6,0,0,0,5.32-8.28h0a13.56,13.56,0,0,0-6.92-7.29l-126.88-58.31Z"/><path class="cls-46" d="M303.27,2700.88l3.86,32.58s22.23,10.35,37.41-1.3l-9.21-36.31Z"/><path class="cls-47" d="M306.17,2088.33c-1.67,8.51-9,424.6,35.51,611.06a6.32,6.32,0,0,1-3.71,7.36,110.08,110.08,0,0,1-36.22,7.37,10.91,10.91,0,0,1-10.81-7.83c-12.72-43.26-73.64-260-81.59-467.08-8.88-231.37,0-7.88,0-7.88l5.21-143Z"/><path class="cls-48" d="M161.26,2731.1s-7.66,13.75-15.07,50.29a11.33,11.33,0,0,0,10,13.57c11.86,1.17,30.11,2.67,44.73,2.57a11.31,11.31,0,0,0,11.19-12.61c-1.62-13.34-6.67-35.22-22.25-52.28Z"/><path class="cls-49" d="M154.53,2689.19l9,49.27s8.93,6.64,26.59,1.83l-4.31-53Z"/><path class="cls-50" d="M130.13,2101.1C93.75,2320.63,138,2643.69,153,2706.92a9.86,9.86,0,0,0,8,7.49c6.67,1.1,17.64,2,28.45-1.14a9,9,0,0,0,6.5-8.32c2-51.12-1.6-364.95,32.29-489A28.21,28.21,0,0,1,239,2200.43l65.79-46.76,5-75.6Z"/><path class="cls-51" d="M361.92,1685.13c-109-1.81-229.29,28.62-229.29,28.62-32.5,189.6-5.69,408.3-5.69,408.3,84.4,22.13,179.6-13.53,179.6-13.53,14-79.25,79.47-302.29,79.47-302.29,53.27-6.61,97.14-22,133.28-42.29-27.57-32-40.56-72.6-46.2-96.63C434.55,1679.28,395.54,1685.68,361.92,1685.13Z"/><path class="cls-52" d="M683.92,1524.56c-10.7-12.94-24.26-6.82-24.26-6.82-16,67.76-100.16,122.71-186.57,149.57,5.64,24,18.63,64.68,46.2,96.63C662.7,1683.3,683.92,1524.56,683.92,1524.56Z"/><path class="cls-53" d="M681.32,1527.85c1.13,3.56-11.85,9-19.49-5.59-.27-7-4.51-36.89-.34-42.58,22.22-30.3,65.3-68.27,65.3-68.27,7.28,7.18,1.28,14.24,1.28,14.24l-20.89,21.77c4.37,7.9,9.7,14.57,12.2,24.12a29.34,29.34,0,0,1-2.92,21.56c-3.67,6.61-8.68,15.2-13.41,21.92C694.1,1527.75,681.32,1527.85,681.32,1527.85Z"/><path class="cls-54" d="M698,1461.55l-19,16.14-6,16.08,17,18.84s5.71-31.9,10-38.8S702,1463.57,698,1461.55Z"/><path class="cls-55" d="M174.44,1819.31l-41.81-105.56S30.8,1782.93,14.06,1870.65c19.24,1.42,54.25,6.42,88.51,23.73C110.1,1853,174.44,1819.31,174.44,1819.31Z"/><path class="cls-56" d="M263.42,1918.63s-114.32,64.61-152.9,9.44c-8-11.45-9.92-22.84-8-33.69-34.26-17.31-69.27-22.31-88.51-23.73-5.05,26.45-2.38,54.57,13.16,83,67.56,123.6,251.33-6.83,251.33-6.83Z"/><path class="cls-57" d="M249.68,2000.37l62.4-217.89a6.36,6.36,0,0,1,5.37-4.58c11.31-1.32,44.06-5,81.88-8.22,41-3.47,88-6.34,120-5a12.83,12.83,0,0,1,11,18.53c-23.37,47-90.07,178.83-124.63,224.06a6.44,6.44,0,0,1-5.14,2.53l-144.77-1.35A6.38,6.38,0,0,1,249.68,2000.37Z"/><path class="cls-58" d="M405.8,1750.79l45.24-7.54a3.25,3.25,0,0,1,3.62,4.22L450.18,1761a3.22,3.22,0,0,1-2.65,2.2L404,1769.06a3.25,3.25,0,0,1-3.59-4l2.78-11.85A3.24,3.24,0,0,1,405.8,1750.79Z"/><path class="cls-59" d="M371.93,1789.09l3.73-19.41a4.48,4.48,0,0,1,3.95-3.62l91.37-9.27a4.48,4.48,0,0,1,4.81,5.51L470,1786.49a4.47,4.47,0,0,1-4.13,3.43l-89.29,4.49A4.48,4.48,0,0,1,371.93,1789.09Z"/><path class="cls-60" d="M264.76,1947.73s-8.69-35.74-5.19-48.42,10.3-29,32.94-25.36,49.35,13.16,49.35,13.16-1.35,16.52-18.55,11.19l10.67,8.25s-1.53,13.23-16.06,6.16l9.92,11s-6.24,10.86-16.93,3.9S295.09,1952,264.76,1947.73Z"/><path class="cls-61" d="M251.5,1596.62l-34.69,100.31a3.62,3.62,0,0,0,1.65,4.36c9.46,5.23,43.52,20.34,84.57-5.69a17,17,0,0,0,7.84-12.16l11.23-86.82Z"/><path class="cls-62" d="M327,1503.73s38.09,71.7,33.21,100.67-52.09,26.88-93.31,3.36l-28.8-77.42Z"/><path class="cls-63" d="M268.69,1569.74a3,3,0,0,0,1.29-4.33c-3.05-4.66-8.77-14.17-10.6-22.5,0,0-6.84-4.38,17.43-10.19s60.48-14.83,68.09-35.49c7.41-20.15-12.08-70.81-43.17-30.44a3,3,0,0,1-4.69,0c-5.1-6.64-18.5-20.41-37.11-12.06-17.41,7.81-19.37,20.57-19.13,27a2.93,2.93,0,0,1-3.48,3c-8.81-1.68-29.93-3.12-39.79,18.55-8.13,17.85-2.85,28,2,32.9a2.94,2.94,0,0,1-1.26,4.89c-5.79,1.78-13.26,6.68-12.51,20.24,1,18.74,22,17.09,27.95,16.23a3,3,0,0,1,2.63.93c5.11,5.66,28.16,29.7,53.1,32.59a3,3,0,0,0,3.13-3.93l-10.8-31.38a3,3,0,0,1,1.61-3.68Z"/><path class="cls-64" d="M273,1574.19s-27.12-18.61-29.1-2.94,24.42,22.7,37.5,16.86Z"/><path class="cls-65" d="M2059.8,2766.22c4.81,0,8.71-2.81,8.71-6.28V2009.11c0-3.46-3.9-6.28-8.71-6.28s-8.71,2.82-8.71,6.28v750.83C2051.09,2763.41,2055,2766.22,2059.8,2766.22Z"/><path class="cls-66" d="M2218.86,2766.22c4.81,0,8.71-2.83,8.71-6.33V2003.63c0-3.5-3.9-6.33-8.71-6.33s-8.71,2.83-8.71,6.33v756.26C2210.15,2763.39,2214.05,2766.22,2218.86,2766.22Z"/><path class="cls-67" d="M2798.88,2772.12a9.68,9.68,0,0,0,3.41-.62c4.42-1.68,6.49-6.25,4.61-10.21L2444.15,1998.7s-20.81-4-18.93,0l365.64,768.68A8.8,8.8,0,0,0,2798.88,2772.12Z"/><path class="cls-68" d="M2523.7,2772.12a9.64,9.64,0,0,0,3.41-.62c4.43-1.68,6.49-6.25,4.61-10.21l-361-759c-1.88-4-21.17-4.72-19.29-.76l364.28,765.83A8.81,8.81,0,0,0,2523.7,2772.12Z"/><rect class="cls-69" x="2039" y="1995.03" width="534.51" height="21.95" rx="2.8" transform="translate(4612.51 4012.01) rotate(180)"/><rect class="cls-70" x="2230.19" y="2140.32" width="275.99" height="15.57"/><rect class="cls-71" x="2312.18" y="2317.45" width="275.99" height="15.57"/><path class="cls-72" d="M2398.15,2510.15h276c4.81,0,8.71-3.49,8.71-7.79s-3.9-7.78-8.71-7.78h-276c-4.81,0-8.71,3.48-8.71,7.78S2393.34,2510.15,2398.15,2510.15Z"/><path class="cls-73" d="M2481.27,2687.28h276c4.81,0,8.71-3.48,8.71-7.79s-3.9-7.78-8.71-7.78h-276c-4.81,0-8.71,3.48-8.71,7.78S2476.46,2687.28,2481.27,2687.28Z"/><path class="cls-1" d="M1986.14,210.12l100.93-83.8a54.2,54.2,0,0,1,34.63-12.5h488.65A54.21,54.21,0,0,1,2664.56,168V335.62a54.21,54.21,0,0,1-54.21,54.21H2121.7a54.2,54.2,0,0,1-34.63-12.5l-100.93-83.8A54.2,54.2,0,0,1,1986.14,210.12Z"/><rect class="cls-74" x="2420.6" y="161.37" width="170.09" height="170.09" rx="41.46"/><polygon class="cls-1" points="2458.23 224.71 2503.85 307.7 2553.06 185.12 2499.36 249.72 2458.23 224.71"/><circle class="cls-75" cx="504.7" cy="1204.86" r="113.7" transform="translate(-767.91 910.12) rotate(-54.23)"/><circle class="cls-1" cx="504.7" cy="1204.86" r="109.92" transform="translate(-704.14 709.77) rotate(-45)"/><path class="cls-76" d="M416.33,1158.28a3.57,3.57,0,0,1-1.63-.48,3.66,3.66,0,0,1-1.37-5,104.71,104.71,0,0,1,96.76-52.94,106.36,106.36,0,0,1,18.85,2.68,3.67,3.67,0,1,1-1.69,7.15,98.83,98.83,0,0,0-17.54-2.48,97.38,97.38,0,0,0-90,49.23A3.66,3.66,0,0,1,416.33,1158.28Z"/><circle class="cls-76" cx="506.97" cy="1207.37" r="93.03" transform="translate(-705.25 712.11) rotate(-45)"/><path class="cls-1" d="M494.3,1276l.52-10.11a82.44,82.44,0,0,1-28-7.61,5.85,5.85,0,0,1-2.88-7.07l3.05-9.28a5.9,5.9,0,0,1,8.2-3.45,68.4,68.4,0,0,0,25.9,6.86c10.15.52,17.9-2.53,18.26-9.59.33-6.36-5.33-10.45-19.24-15-19.84-6.54-33.84-16.06-32.93-33.78.82-16,13.14-27.61,33.61-29.83l.52-10.11a5.89,5.89,0,0,1,6.19-5.59l5.94.3A5.91,5.91,0,0,1,519,1148l-.47,9.07a75.15,75.15,0,0,1,22.27,5.19,5.87,5.87,0,0,1,3.3,7.27l-2.81,8.58a5.87,5.87,0,0,1-7.95,3.57,61.45,61.45,0,0,0-21.85-5.13c-12-.62-15.73,4.19-16,8.66-.29,5.51,6.74,9.66,22.15,15.28,22,7.86,30.83,17.63,30,34.31-.79,15.31-12.85,28.49-35,30.8l-.58,11.32a5.89,5.89,0,0,1-6.19,5.58l-5.94-.3A5.91,5.91,0,0,1,494.3,1276Z"/><circle class="cls-77" cx="604.76" cy="804.1" r="185.56"/><circle class="cls-1" cx="604.76" cy="804.1" r="179.39" transform="translate(-391.46 663.14) rotate(-45)"/><path class="cls-76" d="M460.67,725.54a3.33,3.33,0,0,1-1.53-.45,3.44,3.44,0,0,1-1.28-4.7,168.35,168.35,0,0,1,155.56-85.11,171.18,171.18,0,0,1,30.32,4.31,3.45,3.45,0,0,1-1.59,6.71,162.42,162.42,0,0,0-178.31,77.51A3.42,3.42,0,0,1,460.67,725.54Z"/><circle class="cls-76" cx="608.46" cy="808.21" r="151.83" transform="translate(-393.28 666.97) rotate(-45)"/><path class="cls-1" d="M587.79,920.17l.85-16.5c-17.16-1.57-34-6.5-45.77-12.41a9.55,9.55,0,0,1-4.7-11.54l5-15.16a9.64,9.64,0,0,1,13.38-5.62,111.86,111.86,0,0,0,42.28,11.19c16.56.85,29.2-4.13,29.79-15.64.54-10.39-8.69-17-31.4-24.41C564.82,819.41,542,803.88,543.46,775c1.34-26.11,21.45-45.06,54.85-48.69l.85-16.5a9.63,9.63,0,0,1,10.1-9.12l9.7.5a9.63,9.63,0,0,1,9.12,10.11l-.77,14.81c15.88,1.45,27.33,4.77,36.36,8.47a9.58,9.58,0,0,1,5.38,11.85l-4.58,14a9.6,9.6,0,0,1-13,5.82,100.34,100.34,0,0,0-35.65-8.38c-19.65-1-25.68,6.84-26.06,14.14-.46,9,11,15.77,36.16,24.94,35.93,12.82,50.32,28.76,48.92,56-1.29,25-21,46.49-57.19,50.26l-.95,18.46a9.63,9.63,0,0,1-10.1,9.12l-9.7-.5A9.62,9.62,0,0,1,587.79,920.17Z"/><circle class="cls-78" cx="854.4" cy="1149.36" r="190.94" transform="translate(-562.48 940.79) rotate(-45)"/><circle class="cls-1" cx="854.4" cy="1149.36" r="184.59" transform="translate(-562.48 940.79) rotate(-45)"/><path class="cls-76" d="M706.14,1068.43a3.55,3.55,0,0,1-1.53-.45,3.45,3.45,0,0,1-1.29-4.7,173.13,173.13,0,0,1,160-87.53,175,175,0,0,1,31.17,4.43,3.45,3.45,0,0,1-1.58,6.71,167.26,167.26,0,0,0-183.59,79.8A3.45,3.45,0,0,1,706.14,1068.43Z"/><circle class="cls-76" cx="858.21" cy="1153.59" r="156.23" transform="translate(-495.87 1637.07) rotate(-73)"/><path class="cls-1" d="M836.94,1268.79l.87-17c-17.66-1.62-34.95-6.69-47.1-12.77a9.84,9.84,0,0,1-4.83-11.88l5.12-15.59a9.91,9.91,0,0,1,13.77-5.79,115.08,115.08,0,0,0,43.5,11.52c17.05.87,30.05-4.25,30.66-16.1.55-10.69-8.94-17.54-32.31-25.12-33.32-11-56.83-26.95-55.3-56.71,1.38-26.87,22.07-46.37,56.44-50.11l.87-17a9.91,9.91,0,0,1,10.4-9.39l10,.52a9.9,9.9,0,0,1,9.38,10.39l-.78,15.25c16.34,1.49,28.11,4.9,37.4,8.71a9.86,9.86,0,0,1,5.54,12.2l-4.72,14.42a9.87,9.87,0,0,1-13.36,6,103.06,103.06,0,0,0-36.68-8.62c-20.22-1-26.43,7-26.81,14.55-.48,9.25,11.33,16.23,37.2,25.66,37,13.2,51.78,29.6,50.34,57.62-1.32,25.71-21.57,47.84-58.85,51.72l-1,19a9.91,9.91,0,0,1-10.4,9.38l-10-.51A9.9,9.9,0,0,1,836.94,1268.79Z"/><circle class="cls-79" cx="1017.17" cy="758.89" r="152.71" transform="translate(107.11 1643.38) rotate(-80.91)"/><circle class="cls-1" cx="1017.17" cy="758.89" r="147.63" transform="translate(-238.69 941.52) rotate(-45)"/><path class="cls-76" d="M898.55,695.16a3.76,3.76,0,0,1-3.07-5.62A139.45,139.45,0,0,1,1024.35,619a142.12,142.12,0,0,1,25.11,3.57,3.76,3.76,0,1,1-1.72,7.32,133.57,133.57,0,0,0-23.78-3.37,132,132,0,0,0-122,66.72A3.77,3.77,0,0,1,898.55,695.16Z"/><circle class="cls-76" cx="1020.22" cy="762.27" r="124.95" transform="translate(-240.19 944.67) rotate(-45)"/><path class="cls-1" d="M1003.21,854.4l.7-13.57c-14.12-1.3-27.95-5.35-37.67-10.22a7.85,7.85,0,0,1-3.86-9.5l4.09-12.47a7.93,7.93,0,0,1,11-4.62,92.16,92.16,0,0,0,34.8,9.21c13.63.7,24-3.4,24.52-12.88.43-8.54-7.16-14-25.84-20.08-26.66-8.79-45.46-21.56-44.24-45.36,1.11-21.49,17.66-37.09,45.15-40.07l.69-13.58a7.93,7.93,0,0,1,8.32-7.51l8,.41a7.93,7.93,0,0,1,7.5,8.32l-.63,12.19a101.13,101.13,0,0,1,29.92,7,7.88,7.88,0,0,1,4.43,9.76l-3.77,11.53a7.9,7.9,0,0,1-10.69,4.79,82.58,82.58,0,0,0-29.34-6.9c-16.17-.83-21.13,5.64-21.44,11.64-.38,7.4,9.06,13,29.75,20.53,29.58,10.55,41.41,23.66,40.26,46.08-1,20.56-17.25,38.26-47.06,41.36l-.78,15.19a7.93,7.93,0,0,1-8.32,7.51l-8-.41A7.93,7.93,0,0,1,1003.21,854.4Z"/></g></g></svg>