<?xml version="1.0" encoding="utf-8"?>
<!-- Generator: Adobe Illustrator 25.2.0, SVG Export Plug-In . SVG Version: 6.00 Build 0)  -->
<svg version="1.1" xmlns="http://www.w3.org/2000/svg" xmlns:xlink="http://www.w3.org/1999/xlink" x="0px" y="0px"
	 viewBox="0 0 500 500" style="enable-background:new 0 0 500 500;" xml:space="preserve">
<style type="text/css">
	.st0{fill:#92E3A9;}
	.st1{opacity:0.7;fill:#FFFFFF;}
	.st2{fill:none;stroke:#263238;stroke-miterlimit:10;}
	.st3{opacity:0.15;}
	.st4{opacity:0.3;}
	.st5{fill:none;stroke:#000000;stroke-miterlimit:10;}
	.st6{fill:#92E3A9;stroke:#263238;stroke-miterlimit:10;}
	.st7{fill:#FFFFFF;stroke:#263238;stroke-miterlimit:10;}
	.st8{fill:#263238;}
	.st9{fill:#263238;stroke:#263238;stroke-miterlimit:10;}
	.st10{fill:#FFFFFF;stroke:#263238;stroke-linecap:round;stroke-linejoin:round;stroke-miterlimit:10;}
	.st11{fill:#92E3A9;stroke:#263238;stroke-linecap:round;stroke-linejoin:round;stroke-miterlimit:10;}
	.st12{fill:#263238;stroke:#263238;stroke-linecap:round;stroke-linejoin:round;stroke-miterlimit:10;}
	.st13{fill:#FFFFFF;}
</style>
<g id="Background_Simple">
</g>
<g id="Floor">
</g>
<g id="Plants">
</g>
<g id="Banknotes">
</g>
<g id="Character_1_">
</g>
<g id="Device">
</g>
<g id="Credit_Card">
</g>
<g id="Symbol">
	<g>
		<path class="st0" d="M424.82,112.59C391.67,78.61,345.9,55.9,299.74,45.36c-6.67-1.52-13.39-2.85-20.14-3.99
			C177.22,24.07,114.63,115,96.47,154.28c-18.16,39.27-65.89,124.36-65.2,174.85c0.69,50.5,107.22,139.04,217.21,141.81
			c109.99,2.77,196.45-57.41,215.13-151.49c7.88-39.67,15.97-81.68,7.52-121.94C464.13,164.15,447.4,135.75,424.82,112.59z"/>
		<path class="st1" d="M424.82,112.59C391.67,78.61,345.9,55.9,299.74,45.36c-6.67-1.52-13.39-2.85-20.14-3.99
			C177.22,24.07,114.63,115,96.47,154.28c-18.16,39.27-65.89,124.36-65.2,174.85c0.69,50.5,107.22,139.04,217.21,141.81
			c109.99,2.77,196.45-57.41,215.13-151.49c7.88-39.67,15.97-81.68,7.52-121.94C464.13,164.15,447.4,135.75,424.82,112.59z"/>
	</g>
	<line class="st2" x1="29.88" y1="436.56" x2="483.67" y2="436.56"/>
	<g class="st3">
		<path d="M63.53,316.96c5.62,0.18,17.24-4.75,17.24-4.75c0.12-0.05-5.57-6.67-5.98-7.04c-4.71-4.36-16.38-10-22.64-6.47
			c-4.51,2.54-5.26,8.37-2.4,12.43C52.69,315.27,58.74,316.8,63.53,316.96z"/>
		<path d="M81.09,349.28c5.26-1.25,14.51-8.45,15.24-9.03c3.98,5.2,8.49,10.21,13.33,15.02c2.76,2.76,5.63,5.45,8.55,8.11
			c-1.51-1.02-2.87-1.92-3.07-2.02c-5.7-2.96-18.44-5.32-23.54-0.26c-3.68,3.64-2.86,9.46,0.97,12.62
			c3.91,3.23,10.16,3.1,14.82,1.99c4.73-1.13,12.74-7.11,14.84-8.72c1.13,1.01,2.24,2.03,3.37,3.03
			c5.43,4.82,10.87,9.61,16.06,14.48c1.83,1.71,3.57,3.47,5.32,5.21c-1.34-0.9-2.48-1.65-2.67-1.75
			c-5.69-2.95-18.44-5.32-23.54-0.26c-3.68,3.64-2.86,9.46,0.97,12.62c3.92,3.23,10.16,3.1,14.82,1.99
			c4.51-1.08,11.96-6.53,14.46-8.43c1.73,1.84,3.48,3.69,5.07,5.55c1.06,1.3,2.18,2.47,3.17,3.84c1.01,1.33,2.02,2.65,3.01,3.95
			c1.82,2.58,3.71,5.23,5.43,7.79c1.2,1.77,2.32,3.48,3.45,5.2c-1.8-1.73-5.4-5.03-5.73-5.27c-5.18-3.78-17.42-8.05-23.23-3.82
			c-4.19,3.04-4.26,8.92-0.95,12.62c3.38,3.78,9.57,4.61,14.35,4.21c5.26-0.43,15.12-5.88,16.34-6.56c1.86,2.85,3.64,5.65,5.27,8.31
			c1.47,2.38,2.84,4.65,4.13,6.83l4.18-1.67c-1.46-2.36-3.02-4.84-4.71-7.44c-1.87-2.91-3.93-5.97-6.08-9.1
			c0.66-0.62,4.37-4.17,7.42-7.93c4.89,2.34,15.37,3.18,16.72,3.28c-0.02,3.4-0.08,6.72-0.19,9.84c-0.07,2.15-0.15,4.22-0.24,6.2
			l4.43-1.76c0.03-1.42,0.05-2.86,0.07-4.35c0.04-3.46,0.01-7.15-0.05-10.94c1.36-0.24,12.46-2.24,16.82-5.23
			c3.95-2.71,8.23-7.26,8.47-12.33c0.23-4.96-3.54-9.47-8.71-9.18c-7.17,0.39-13.97,11.43-15.6,17.63c-0.1,0.37-0.7,4.45-1.03,7.04
			c-0.03-1.55-0.05-3.05-0.1-4.65c-0.08-3.16-0.26-6.3-0.45-9.69c-0.14-1.63-0.29-3.28-0.44-4.94c-0.11-1.65-0.44-3.39-0.65-5.1
			c-0.58-3.96-1.36-7.94-2.23-11.93c2.76-0.08,12.57-0.52,16.9-2.61c4.32-2.08,9.24-5.93,10.24-10.9c0.98-4.87-2.06-9.89-7.21-10.4
			c-7.15-0.7-15.54,9.18-18.09,15.07c-0.16,0.37-1.51,4.8-2.21,7.24c-0.54-2.4-1.07-4.79-1.7-7.2c-1.81-6.95-3.87-13.92-5.88-20.89
			c-0.62-2.13-1.21-4.27-1.81-6.4c0.98-0.02,12.65-0.28,17.51-2.62c4.32-2.08,9.24-5.93,10.24-10.9c0.98-4.87-2.06-9.89-7.21-10.39
			c-7.15-0.7-15.54,9.18-18.09,15.06c-0.19,0.44-2.13,6.82-2.55,8.47c-1.32-4.7-2.59-9.39-3.65-14.07
			c-1.48-6.45-2.57-12.87-3.17-19.16c0.46-0.01,12.63-0.23,17.61-2.62c4.32-2.08,9.24-5.93,10.24-10.9
			c0.98-4.87-2.06-9.89-7.22-10.4c-7.15-0.7-15.54,9.18-18.09,15.07c-0.2,0.46-2.28,7.32-2.57,8.6c-0.03-0.37-0.11-0.76-0.14-1.13
			c-0.56-6.73-0.25-13.31,0.34-19.46c0.34-3.58,0.86-6.97,1.44-10.27c2.27,0.19,12.67,0.95,17.38-0.71
			c4.52-1.59,9.83-4.88,11.37-9.71c1.51-4.73-0.96-10.06-6.03-11.13c-7.03-1.48-16.45,7.42-19.64,12.99
			c-0.17,0.3-1.59,3.58-2.59,5.98c0.28-1.48,0.55-3.02,0.85-4.43c1.12-5.32,2.47-10.12,3.7-14.36c0.72-2.41,1.42-4.57,2.09-6.58
			c2.33-0.97,11.66-5.02,15.02-8.6c3.27-3.5,6.48-8.86,5.62-13.86c-0.84-4.89-5.49-8.48-10.48-7.1
			c-6.92,1.93-11.19,14.16-11.44,20.58c-0.02,0.55,0.63,9.26,0.75,9.21c0,0,0.11-0.05,0.14-0.06c-0.69,1.93-1.4,4-2.14,6.28
			c-1.33,4.22-2.79,9.01-4.02,14.32c-1.25,5.31-2.46,11.11-3.18,17.33c-0.73,6.24-1.18,12.84-0.77,19.7c0,0.08,0.02,0.16,0.02,0.24
			c-0.74-1.97-3.01-7.41-3.23-7.8c-3.12-5.61-12.44-14.61-19.49-13.21c-5.08,1.01-7.61,6.31-6.15,11.06
			c1.49,4.85,6.76,8.19,11.26,9.84c5.08,1.85,16.76,0.95,17.69,0.88c0.45,6.53,1.45,13.19,2.83,19.88
			c0.79,3.83,1.69,7.65,2.65,11.48c-0.7-1.68-1.33-3.18-1.45-3.38c-3.12-5.61-12.44-14.6-19.49-13.2
			c-5.08,1.01-7.61,6.31-6.15,11.06c1.48,4.85,6.76,8.19,11.26,9.84c4.57,1.67,14.55,1.1,17.18,0.92c0.38,1.46,0.75,2.93,1.14,4.39
			c1.87,7.02,3.76,14.01,5.41,20.93c0.58,2.44,1.07,4.86,1.56,7.28c-0.62-1.49-1.16-2.74-1.26-2.93
			c-3.12-5.61-12.44-14.61-19.49-13.21c-5.08,1.01-7.61,6.31-6.15,11.06c1.48,4.85,6.76,8.19,11.26,9.84
			c4.36,1.59,13.57,1.15,16.71,0.95c0.43,2.5,0.86,4.99,1.17,7.43c0.17,1.67,0.45,3.26,0.53,4.95c0.11,1.67,0.22,3.32,0.33,4.95
			c0.09,3.16,0.21,6.41,0.23,9.49c0.03,2.14,0.01,4.19,0,6.24c-0.55-2.43-1.73-7.17-1.87-7.56c-1.49-4-5.45-9.87-10.06-13.28
			c-0.22-0.59-0.48-1.16-0.8-1.7c-2.55-4.26-8.17-5.94-12.33-2.86c-5.77,4.29-5.35,17.24-3.28,23.31c0.12,0.36,1.88,4.1,3.02,6.44
			c-0.88-1.27-1.73-2.52-2.65-3.82c-1.81-2.58-3.7-5.11-5.71-7.83c-1.02-1.28-2.05-2.57-3.09-3.88c-1-1.32-2.23-2.58-3.36-3.89
			c-2.66-2.98-5.51-5.87-8.44-8.72c2.26-1.59,10.2-7.36,12.66-11.5c2.45-4.12,4.43-10.04,2.52-14.74c-1.87-4.6-7.18-7.11-11.75-4.69
			c-6.35,3.36-7.9,16.23-6.78,22.55c0.07,0.39,1.38,4.84,2.15,7.26c-1.77-1.7-3.54-3.4-5.39-5.06c-5.34-4.79-10.9-9.48-16.43-14.18
			c-1.69-1.44-3.36-2.89-5.04-4.34c0.81-0.56,10.39-7.21,13.16-11.85c2.45-4.12,4.43-10.04,2.52-14.74
			c-1.87-4.6-7.18-7.11-11.75-4.69c-6.35,3.36-7.9,16.23-6.78,22.55c0.09,0.48,1.98,6.87,2.55,8.47c-3.69-3.19-7.34-6.41-10.81-9.72
			c-4.79-4.57-9.24-9.31-13.22-14.23c0.38-0.26,10.41-7.16,13.24-11.9c2.45-4.12,4.43-10.04,2.52-14.74
			c-1.87-4.6-7.18-7.11-11.75-4.69c-6.35,3.36-7.9,16.23-6.78,22.55c0.09,0.5,2.14,7.37,2.6,8.59c-0.24-0.29-0.51-0.57-0.74-0.86
			c-4.17-5.31-7.55-10.97-10.45-16.42c-1.69-3.17-3.13-6.29-4.47-9.36c2-1.09,11.09-6.19,14.1-10.18c2.89-3.82,5.51-9.5,4.13-14.38
			c-1.35-4.78-6.35-7.86-11.17-5.95c-6.68,2.65-9.63,15.26-9.21,21.67c0.02,0.35,0.65,3.86,1.14,6.41
			c-0.58-1.39-1.21-2.82-1.74-4.17c-2-5.05-3.52-9.8-4.84-14.02c-0.73-2.4-1.34-4.59-1.89-6.65c1.4-2.1,6.95-10.62,7.78-15.46
			c0.8-4.72,0.51-10.97-2.96-14.66c-3.4-3.62-9.26-4.05-12.65-0.14c-4.71,5.43-1.52,17.99,1.81,23.48c0.29,0.47,5.63,7.38,5.71,7.27
			c0,0,0.07-0.1,0.08-0.13c0.49,1.99,1.04,4.11,1.68,6.42c1.22,4.25,2.64,9.05,4.54,14.16c1.88,5.12,4.08,10.62,6.91,16.21
			c2.83,5.61,6.09,11.36,10.22,16.86c0.05,0.06,0.1,0.12,0.15,0.18c-1.71-1.23-6.6-4.52-7-4.73c-5.7-2.96-18.44-5.32-23.54-0.26
			c-3.68,3.64-2.86,9.46,0.97,12.62C70.18,350.52,76.43,350.4,81.09,349.28z"/>
		<path d="M183.07,272.34c0.13,0.02-0.97-8.64-1.1-9.17c-1.53-6.23-8.15-17.37-15.31-17.88c-5.16-0.37-9,4.08-8.85,9.04
			c0.15,5.07,4.36,9.69,8.27,12.46C170.66,270.05,183.06,272.34,183.07,272.34z"/>
	</g>
	<g class="st3">
		<path d="M465.5,282.73c-5.19,2.17-17.8,1.69-17.81,1.69c-0.13-0.01,2.84-8.21,3.08-8.71c2.86-5.75,11.75-15.17,18.86-14.1
			c5.12,0.77,7.89,5.95,6.66,10.76C475.04,277.3,469.92,280.88,465.5,282.73z"/>
		<path d="M321.1,290.39c5-0.12,14.44-4.53,16.5-5.52c1.71,2.87,3.41,5.86,4.99,9.09c2.74,5.54,5.37,11.59,7.24,18.07
			c0.1,0.36,0.17,0.75,0.27,1.11c-0.72-1.09-5.11-6.76-5.46-7.12c-4.48-4.6-15.83-10.84-22.27-7.65c-4.64,2.3-5.69,8.08-3.05,12.28
			c2.7,4.29,8.67,6.14,13.45,6.55c5.5,0.47,16.96-3.65,17.39-3.81c1.68,6.1,2.94,12.48,3.85,19.04c0.67,4.75,1.15,9.59,1.59,14.45
			c-0.97-1.39-5.05-6.66-5.39-7.01c-4.48-4.6-15.83-10.84-22.27-7.65c-4.64,2.3-5.69,8.08-3.05,12.28c2.7,4.29,8.67,6.14,13.44,6.55
			c5.37,0.46,16.37-3.44,17.3-3.77c0.2,2.21,0.4,4.41,0.58,6.63c0.59,7.23,1.15,14.48,1.93,21.61c0.27,2.47,0.62,4.9,0.97,7.33
			c-1.52-2.04-4.36-5.7-4.64-5.98c-4.48-4.6-15.83-10.84-22.27-7.65c-4.64,2.3-5.69,8.08-3.05,12.28c2.7,4.29,8.67,6.14,13.44,6.55
			c4.8,0.41,14.12-2.67,16.73-3.57c0.6,4.04,1.29,8.04,2.16,11.94c0.41,1.67,0.72,3.41,1.2,5c0.45,1.61,0.9,3.2,1.35,4.78
			c1.03,3.23,1.98,6.23,3.03,9.21c0.52,1.51,1.04,2.92,1.56,4.38c-1.23-2.3-3.25-5.91-3.47-6.21c-3.73-5.22-14-13.12-20.85-10.93
			c-4.93,1.57-6.85,7.12-4.87,11.68c2.02,4.65,7.64,7.38,12.3,8.51c5.14,1.24,16.23-0.83,17.58-1.09c1.29,3.57,2.58,7.03,3.85,10.25
			c0.54,1.39,1.08,2.73,1.61,4.04l4.77,0.07c-0.79-1.83-1.6-3.73-2.43-5.71c-1.21-2.88-2.44-5.96-3.67-9.13
			c1.23-0.57,10.72-5.09,14.46-9.01c4.18,2.42,8.92,4.42,9.75,4.77c-0.89,3.69-1.73,7.29-2.45,10.67c-0.65,3.04-1.23,5.9-1.76,8.63
			l1.75,0.03h2.76c0.43-2.48,0.9-5.08,1.42-7.81c0.58-3.07,1.25-6.31,1.97-9.64c1.39,0.21,12.54,1.79,17.61,0.32
			c4.6-1.33,10.1-4.31,11.91-9.04c1.78-4.64-0.38-10.1-5.38-11.45c-6.93-1.88-16.86,6.45-20.35,11.83
			c-0.22,0.34-2.41,4.71-3.48,6.97c0.44-2.01,0.88-4.01,1.37-6.09c0.69-3,1.52-6.15,2.3-9.21c0.46-1.57,0.93-3.16,1.41-4.76
			c0.44-1.63,1.07-3.12,1.6-4.71c0.83-2.31,1.8-4.65,2.77-6.99c3.02,0.89,11.91,3.34,16.51,2.74c4.75-0.62,10.63-2.72,13.15-7.13
			c2.46-4.31,1.15-10.04-3.58-12.14c-6.57-2.91-17.64,3.83-21.91,8.61c-0.14,0.16-0.94,1.26-1.87,2.58
			c1.01-2.26,2.01-4.51,3.11-6.76c3.12-6.39,6.5-12.8,9.86-19.24c0.7-1.34,1.38-2.69,2.07-4.04c2.53,0.76,12.14,3.5,16.97,2.87
			c4.75-0.62,10.64-2.73,13.15-7.13c2.46-4.32,1.15-10.04-3.58-12.14c-6.57-2.91-17.64,3.83-21.91,8.61
			c-0.15,0.17-1.1,1.49-2.15,2.98c1.77-3.52,3.5-7.06,5.1-10.62c2.81-6.22,5.24-12.51,7.12-18.78c0.89,0.28,12.09,3.71,17.45,3.02
			c4.75-0.62,10.63-2.72,13.15-7.13c2.46-4.32,1.15-10.04-3.58-12.14c-6.57-2.91-17.64,3.83-21.91,8.61
			c-0.3,0.34-3.7,5.15-4.86,6.91c0.02-0.07,0.05-0.15,0.08-0.22c1.91-6.6,2.91-13.14,3.56-19.39c0.66-6.23,0.75-12.16,0.69-17.61
			c-0.04-5.46-0.42-10.44-0.79-14.85c-0.22-2.39-0.46-4.57-0.71-6.6c0.02,0.02,0.12,0.09,0.12,0.09c0.11,0.07,2.65-8.28,2.75-8.82
			c1.15-6.31-0.33-19.19-6.66-22.58c-4.56-2.45-9.88,0.04-11.78,4.63c-1.93,4.69,0.01,10.62,2.44,14.75
			c2.49,4.23,10.71,10.22,12.77,11.69c0.22,2.11,0.43,4.38,0.6,6.88c0.27,4.41,0.54,9.39,0.46,14.82c-0.02,1.45-0.09,3-0.14,4.51
			c-0.45-2.56-1.12-6.07-1.22-6.4c-1.88-6.13-9.13-16.88-16.32-16.97c-5.18-0.07-8.75,4.59-8.32,9.53
			c0.44,5.05,4.91,9.42,8.97,11.97c4.24,2.66,14.54,4.19,16.8,4.5c-0.16,3.34-0.39,6.77-0.85,10.33
			c-0.77,6.13-1.92,12.62-3.93,19.07c-0.11,0.36-0.27,0.71-0.39,1.07c0-1.3-0.53-8.45-0.63-8.95c-1.2-6.3-7.22-17.78-14.35-18.66
			c-5.14-0.64-9.21,3.6-9.32,8.56c-0.12,5.07,3.84,9.91,7.6,12.88c4.33,3.43,16.16,6.31,16.61,6.42c-1.96,6.01-4.44,12.03-7.29,18
			c-2.06,4.33-4.33,8.64-6.65,12.93c-0.04-1.7-0.54-8.34-0.63-8.82c-1.2-6.3-7.22-17.78-14.35-18.66c-5.14-0.64-9.2,3.6-9.32,8.56
			c-0.11,5.07,3.84,9.91,7.6,12.88c4.23,3.35,15.55,6.16,16.51,6.39c-1.05,1.95-2.1,3.9-3.17,5.85
			c-3.49,6.36-7.02,12.71-10.32,19.09c-1.14,2.21-2.18,4.43-3.24,6.65c-0.14-2.54-0.5-7.16-0.57-7.55
			c-1.2-6.3-7.22-17.78-14.35-18.66c-5.14-0.64-9.2,3.6-9.32,8.56c-0.11,5.07,3.84,9.91,7.6,12.88c3.77,2.99,13.24,5.56,15.92,6.25
			c-1.73,3.7-3.36,7.42-4.79,11.15c-0.58,1.62-1.28,3.24-1.75,4.83c-0.51,1.59-1.01,3.17-1.51,4.73c-0.92,3.27-1.78,6.29-2.56,9.35
			c-0.4,1.54-0.75,3.01-1.12,4.51c0.24-2.6,0.55-6.72,0.54-7.1c-0.23-6.41-4.44-18.67-11.36-20.62c-4.98-1.41-9.64,2.16-10.51,7.05
			c-0.11,0.62-0.16,1.25-0.15,1.88c-3.09,4.82-4.71,11.73-4.68,15.99c0,0.41,0.59,5.26,0.94,7.73c-0.74-1.92-1.48-3.82-2.22-5.84
			c-1.08-2.88-2.13-5.97-3.16-8.95c-0.48-1.57-0.96-3.15-1.45-4.75c-0.53-1.6-0.83-3.19-1.27-4.81c-0.58-2.39-1.07-4.88-1.55-7.36
			c3-0.92,11.77-3.79,15.28-6.83c3.62-3.14,7.37-8.14,7.03-13.2c-0.33-4.96-4.58-9.01-9.68-8.15c-7.08,1.2-12.6,12.92-13.52,19.27
			c-0.03,0.21-0.09,1.57-0.14,3.18c-0.4-2.44-0.81-4.87-1.13-7.36c-0.92-7.05-1.64-14.26-2.39-21.49c-0.16-1.51-0.33-3.01-0.5-4.51
			c2.53-0.76,12.06-3.78,15.73-6.97c3.62-3.14,7.37-8.14,7.03-13.2c-0.33-4.96-4.58-9.01-9.68-8.15
			c-7.09,1.2-12.6,12.92-13.52,19.27c-0.03,0.23-0.1,1.85-0.15,3.67c-0.46-3.92-0.97-7.82-1.6-11.67
			c-1.09-6.74-2.53-13.32-4.42-19.59c0.9-0.26,12.14-3.58,16.22-7.11c3.62-3.14,7.37-8.14,7.03-13.2c-0.33-4.96-4.58-9.01-9.68-8.15
			c-7.09,1.2-12.6,12.92-13.52,19.27c-0.07,0.45-0.25,6.34-0.24,8.44c-0.02-0.07-0.04-0.15-0.06-0.23
			c-2.05-6.56-4.82-12.57-7.72-18.14c-2.89-5.56-6.08-10.55-9.14-15.07c-3.05-4.53-6.11-8.48-8.85-11.95
			c-1.5-1.87-2.9-3.55-4.23-5.11c0.03,0,0.15,0,0.15,0c0.13,0-2.36-8.36-2.57-8.87c-2.52-5.9-10.86-15.82-18.01-15.16
			c-5.15,0.47-8.22,5.48-7.27,10.36c0.97,4.98,5.88,8.85,10.18,10.96c4.41,2.15,14.57,2.62,17.09,2.7c1.35,1.64,2.77,3.42,4.3,5.41
			c2.66,3.53,5.63,7.53,8.56,12.11c0.79,1.22,1.58,2.56,2.37,3.84c-1.79-1.89-4.28-4.44-4.55-4.67c-4.96-4.08-16.92-9.04-22.97-5.16
			c-4.36,2.8-4.77,8.65-1.68,12.54C310.17,289.32,316.31,290.51,321.1,290.39z"/>
		<path d="M337.91,283.54c-0.11,0.07-2.16-8.42-2.23-8.97c-0.79-6.37,1.44-19.13,7.96-22.16c4.69-2.18,9.86,0.61,11.49,5.3
			c1.66,4.79-0.63,10.61-3.29,14.59C348.7,276.98,337.92,283.53,337.91,283.54z"/>
	</g>
	<g class="st4">
		
			<rect x="108.54" y="118.97" transform="matrix(-0.6731 0.7396 -0.7396 -0.6731 320.7213 156.1151)" class="st5" width="34.63" height="59.96"/>
		<path class="st5" d="M132.29,173.68c1.55-1.71,4.2-1.83,5.9-0.28c0.13,0.12,0.25,0.24,0.36,0.37l13.38-14.71
			c-0.14-0.1-0.28-0.2-0.41-0.32c-1.71-1.55-1.83-4.2-0.28-5.9c0.06-0.06,0.12-0.12,0.18-0.18l-31.69-28.83
			c-0.05,0.07-0.11,0.14-0.16,0.2c-1.55,1.71-4.2,1.83-5.9,0.28c-0.13-0.12-0.25-0.24-0.36-0.37l-13.38,14.71
			c0.14,0.1,0.28,0.2,0.41,0.32c1.71,1.55,1.83,4.2,0.28,5.9c-0.12,0.13-0.24,0.25-0.37,0.36l31.72,28.86
			C132.07,173.94,132.18,173.81,132.29,173.68z M120.79,144.34c2.55-2.8,6.88-3,9.67-0.46c2.8,2.55,3,6.88,0.46,9.67
			c-2.55,2.8-6.88,3-9.68,0.46C118.45,151.47,118.24,147.14,120.79,144.34z"/>
	</g>
	<g class="st4">
		
			<rect x="255.34" y="15.19" transform="matrix(0.2551 0.9669 -0.9669 0.2551 246.7626 -229.9851)" class="st5" width="34.63" height="59.96"/>
		<path class="st5" d="M296.91,53.2c-0.59-2.23,0.74-4.52,2.97-5.11c0.17-0.04,0.34-0.07,0.51-0.1l-5.07-19.23
			c-0.16,0.06-0.32,0.12-0.49,0.17c-2.23,0.59-4.52-0.74-5.11-2.97c-0.02-0.08-0.04-0.17-0.05-0.25l-41.42,10.93
			c0.03,0.08,0.06,0.16,0.08,0.25c0.59,2.23-0.74,4.52-2.97,5.11c-0.17,0.04-0.34,0.07-0.51,0.1l5.07,19.23
			c0.16-0.06,0.32-0.12,0.49-0.17c2.23-0.59,4.52,0.74,5.11,2.97c0.04,0.17,0.07,0.34,0.1,0.51l41.47-10.94
			C297.02,53.53,296.96,53.37,296.91,53.2z M266.03,46.92c-0.96-3.66,1.22-7.4,4.87-8.37c3.66-0.97,7.4,1.22,8.37,4.87
			c0.97,3.66-1.22,7.4-4.87,8.37C270.74,52.76,267,50.57,266.03,46.92z"/>
	</g>
	<g class="st4">
		
			<rect x="358.28" y="207.98" transform="matrix(-0.587 -0.8096 0.8096 -0.587 403.3965 681.7134)" class="st5" width="34.63" height="59.96"/>
		<path class="st5" d="M350.07,239.22c1.35,1.87,0.94,4.48-0.93,5.84c-0.14,0.1-0.29,0.19-0.44,0.27l11.67,16.1
			c0.13-0.12,0.26-0.23,0.4-0.33c1.87-1.35,4.48-0.94,5.84,0.93c0.05,0.07,0.09,0.14,0.14,0.22l34.69-25.15
			c-0.05-0.07-0.11-0.13-0.16-0.2c-1.35-1.87-0.94-4.48,0.93-5.84c0.14-0.1,0.29-0.19,0.44-0.27l-11.67-16.1
			c-0.13,0.12-0.26,0.23-0.4,0.33c-1.87,1.35-4.48,0.94-5.84-0.93c-0.1-0.14-0.19-0.29-0.27-0.44l-34.72,25.17
			C349.85,238.95,349.97,239.08,350.07,239.22z M381.14,233.94c2.22,3.06,1.54,7.34-1.52,9.57s-7.34,1.54-9.56-1.52
			c-2.22-3.06-1.54-7.34,1.52-9.57C374.64,230.19,378.92,230.87,381.14,233.94z"/>
	</g>
	<g class="st4">
		
			<rect x="390.81" y="106.31" transform="matrix(0.6333 -0.7739 0.7739 0.6333 44.1684 365.8114)" class="st5" width="34.63" height="59.96"/>
		<path class="st5" d="M400.4,111.94c-1.46,1.79-4.09,2.05-5.88,0.59c-0.14-0.11-0.26-0.23-0.38-0.35l-12.59,15.39
			c0.14,0.09,0.29,0.19,0.42,0.3c1.79,1.46,2.05,4.09,0.59,5.88c-0.06,0.07-0.12,0.13-0.17,0.19l33.15,27.13
			c0.05-0.07,0.1-0.14,0.15-0.21c1.46-1.79,4.09-2.05,5.88-0.59c0.14,0.11,0.26,0.23,0.38,0.35l12.59-15.39
			c-0.14-0.09-0.29-0.19-0.42-0.3c-1.79-1.46-2.05-4.09-0.59-5.88c0.11-0.14,0.23-0.26,0.35-0.38l-33.19-27.16
			C400.61,111.66,400.51,111.8,400.4,111.94z M413.43,140.63c-2.4,2.93-6.71,3.36-9.64,0.96c-2.93-2.4-3.36-6.71-0.96-9.64
			c2.4-2.93,6.71-3.36,9.64-0.96C415.39,133.39,415.82,137.71,413.43,140.63z"/>
	</g>
	<g class="st4">
		
			<rect x="38.49" y="326.66" transform="matrix(-0.587 -0.8096 0.8096 -0.587 -200.1895 611.1512)" class="st5" width="34.63" height="59.96"/>
		<path class="st5" d="M30.28,357.91c1.35,1.87,0.94,4.48-0.93,5.84c-0.14,0.1-0.29,0.19-0.44,0.27l11.67,16.1
			c0.13-0.12,0.26-0.23,0.4-0.33c1.87-1.35,4.48-0.94,5.84,0.93c0.05,0.07,0.09,0.14,0.14,0.22l34.69-25.15
			c-0.05-0.07-0.11-0.13-0.16-0.2c-1.35-1.87-0.94-4.48,0.93-5.84c0.14-0.1,0.29-0.19,0.44-0.27l-11.67-16.1
			c-0.13,0.12-0.26,0.23-0.4,0.33c-1.87,1.35-4.48,0.94-5.84-0.93c-0.1-0.14-0.19-0.29-0.27-0.44l-34.72,25.17
			C30.06,357.63,30.17,357.77,30.28,357.91z M61.35,352.62c2.22,3.06,1.54,7.34-1.53,9.56c-3.06,2.22-7.34,1.54-9.56-1.52
			c-2.22-3.06-1.54-7.34,1.52-9.57C54.84,348.88,59.13,349.56,61.35,352.62z"/>
	</g>
	<g>
		<g>
			<path class="st6" d="M89.22,228.33l27.98,12.89l23.07-31.08c0,0-0.33-7.83,0-8.98c0.33-1.14,3.1-5.22,3.59-5.88
				c0.49-0.65,1.47,0,1.63,0.98c0.16,0.98-0.49,1.8-0.82,2.61c-0.33,0.82-0.98,2.61-0.98,2.61l0.82,2.45l8.65-6.86
				c0,0,1.96-2.61,2.61-1.47l0,0c0.4,0.69,0.34,1.56-0.13,2.2l-3.95,5.31l2.61,0.16l6.37-5.39c0,0,1.14-0.49,1.31,0.98l0,0
				c0.1,0.92-0.24,1.84-0.92,2.48l-3.9,3.64l-2.52,1.55l7.51-3.1c0,0,0.98,0.98,0.65,1.47l-8.16,6.37l6.04-0.98
				c0,0,0.82,1.14,0.33,1.8l-16.65,4.73c0,0-23.23,43.65-23.56,44.3s-3.75,2.12-6.37,1.31c-2.61-0.82-35.98-15.34-35.98-15.34"/>
			<path class="st7" d="M132.14,239.78c6.03-11.33,12.21-22.94,12.21-22.94l16.65-4.73c0.49-0.65-0.33-1.8-0.33-1.8l-6.04,0.98
				l8.16-6.37c0.33-0.49-0.65-1.47-0.65-1.47l-7.51,3.1l2.52-1.55l3.9-3.64c0.68-0.63,1.02-1.55,0.92-2.48
				c-0.16-1.47-1.31-0.98-1.31-0.98l-6.37,5.39l-2.61-0.16l3.95-5.31c0.48-0.64,0.53-1.5,0.13-2.2h0c-0.65-1.14-2.61,1.47-2.61,1.47
				l-8.65,6.86l-0.82-2.45c0,0,0.65-1.8,0.98-2.61c0.33-0.82,0.98-1.63,0.82-2.61c-0.16-0.98-1.14-1.63-1.63-0.98
				c-0.49,0.65-3.26,4.73-3.59,5.88c-0.33,1.14,0,8.98,0,8.98l-17.12,23.06L132.14,239.78z"/>
			<path class="st2" d="M144.51,203.95c0,0,1.63,1.37,2.14,2.65c0.51,1.28-1.79,4.35-2.82,4.87"/>
		</g>
		<g>
			<g>
				
					<ellipse transform="matrix(0.7071 -0.7071 0.7071 0.7071 -76.6033 176.1789)" class="st7" cx="174.37" cy="180.56" rx="44.99" ry="44.99"/>
			</g>
			<g>
				
					<ellipse transform="matrix(0.9081 -0.4187 0.4187 0.9081 -59.5772 89.5889)" class="st7" cx="174.37" cy="180.56" rx="37.78" ry="37.78"/>
			</g>
			<g>
				<path class="st8" d="M182.13,214.94l-1.28-6.02c-4.48,0.77-8.1,0.06-10.87-2.15c-2.77-2.21-4.8-5.94-6.1-11.21l8.79-3.49
					c0.55,2.14,1.16,3.89,1.83,5.26c0.67,1.37,1.45,2.33,2.34,2.88c0.88,0.56,1.91,0.71,3.07,0.46c1.33-0.28,2.16-0.91,2.47-1.88
					c0.31-0.97,0.35-2.01,0.11-3.13c-0.47-2.2-1.37-3.93-2.7-5.21c-1.33-1.27-3.04-2.47-5.13-3.61l-6.5-3.55
					c-1.5-0.9-2.87-1.85-4.12-2.84c-1.25-1-2.33-2.21-3.24-3.64c-0.91-1.43-1.59-3.2-2.04-5.31c-0.86-4.05-0.38-7.46,1.44-10.21
					c1.83-2.75,4.65-4.7,8.46-5.82l-1.22-5.76l3.11-0.66l1.22,5.76c2.36-0.37,4.38-0.24,6.06,0.37c1.68,0.61,3.07,1.53,4.14,2.77
					c1.07,1.24,1.96,2.65,2.66,4.23c0.7,1.59,1.26,3.15,1.67,4.68l-8.96,3.33c-0.38-1.59-0.81-2.97-1.29-4.15
					c-0.48-1.18-1.07-2.06-1.78-2.63c-0.71-0.57-1.64-0.71-2.79-0.42c-1.2,0.3-2.01,0.97-2.45,2.01c-0.43,1.04-0.53,2.12-0.29,3.24
					c0.42,1.98,1.24,3.48,2.44,4.48c1.21,1.01,2.53,1.94,3.98,2.8l6.36,3.52c1.7,0.99,3.31,2.11,4.84,3.36
					c1.53,1.25,2.85,2.72,3.98,4.39c1.12,1.68,1.94,3.7,2.44,6.07c0.49,2.29,0.46,4.46-0.06,6.54c-0.53,2.07-1.54,3.88-3.04,5.41
					c-1.5,1.54-3.41,2.66-5.74,3.38l1.29,6.08L182.13,214.94z"/>
			</g>
		</g>
		<g>
			<g>
				<path class="st7" d="M139.31,424.51l11.87,8.41c0,0,7.16,1.47,8.07,2.2c0.92,0.73,0.92,3.85,0.92,3.85s-7.34,0.92-14.13,1.1
					c-6.79,0.18-10.27,0-15.6-0.18c-5.32-0.18-9.72,0.18-10.83-1.1c-1.1-1.28-0.03-12.49-0.03-12.49S132.03,419.58,139.31,424.51z"
					/>
				<path class="st7" d="M146.05,440.07c6.79-0.18,14.13-1.1,14.13-1.1s0-0.97-0.16-1.96c-7.6,0.62-21.7,1.6-25.53,0.67
					c-4.36-1.05-12.52-1.49-15.34-1.61c0.05,1.34,0.19,2.37,0.48,2.71c1.1,1.28,5.5,0.92,10.83,1.1
					C135.77,440.07,139.26,440.25,146.05,440.07z"/>
			</g>
			<g>
				<path class="st7" d="M71.28,429.61l6.24,7.89l10.83,6.79c0.73,2.2,0.37,2.75,0.18,3.49c-0.18,0.73-3.49,0.92-7.52,0.73
					c-4.04-0.18-13.94,1.1-16.88,0.18c-2.94-0.92-12.29-3.49-13.39-4.04c-1.1-0.55-2.94-1.1-2.39-3.12
					c0.55-2.02,2.17-9.09,2.17-9.09S59.53,425.94,71.28,429.61z"/>
				<path class="st7" d="M81,448.51c4.04,0.18,7.34,0,7.52-0.73c0.13-0.52,0.34-0.95,0.2-1.93c-5.01,0.22-17.99,0.72-21.67,0.28
					c-4.2-0.5-16.37-4.99-18.41-5.76c-0.12,0.47-0.22,0.88-0.3,1.17c-0.55,2.02,1.28,2.57,2.39,3.12c1.1,0.55,10.46,3.12,13.39,4.04
					C67.06,449.61,76.97,448.33,81,448.51z"/>
			</g>
			<path class="st9" d="M63.36,302.16l5.19,62.94l-16.13,58.13l-2.3,9.22c0,0,1.79,1.54,6.66,1.28c4.87-0.26,14.6-2.56,14.6-2.56
				s1.28-2.3,1.02-4.35c-0.26-2.05-1.28-2.82-1.28-3.58s21.51-58.13,21.51-58.13l2.05-33.29l14.6,37.13l9.47,57.36
				c0,0,0.51,2.82,1.28,2.56c0.77-0.26,13.57-4.87,13.57-4.87l4.87,0.51c0,0,0.51-7.43-1.54-8.96c-2.05-1.54-2.82-3.07-2.82-3.07
				l-2.05-54.54l-19.97-56.08l-1.79-6.91L64.2,297.5L63.36,302.16z"/>
			<polygon class="st6" points="63.36,302.16 63.78,305.59 112.09,301.85 110.01,297.34 			"/>
			<path class="st6" d="M57.98,223.65c0,0-2.94,9.96-2.61,14.53c0.33,4.57,6.04,40.64,6.04,40.64l2.12,13.87
				c0,0-1.63,4.24-1.47,5.22c0.16,0.98-0.16,3.59,1.31,4.24c1.47,0.65,13.87-0.16,26.61-0.49c12.73-0.33,17.63-0.82,19.26-1.47
				c1.63-0.65,3.59-2.94,3.26-4.73c-0.33-1.8-1.63-5.06-1.63-5.06s-0.65-43.58-1.63-50.27c-0.98-6.69-2.12-15.83-5.55-19.26
				s-9.14-4.9-9.14-4.9l-4.57,8.49c0,0-15.67-6.37-21.38-7.02C62.87,216.79,57.98,223.65,57.98,223.65z"/>
			<path class="st2" d="M67.55,255.44c-2.12,0.66-3.88,1.16-4.73,1.3"/>
			<path class="st2" d="M82.02,250.6c0,0-6.08,2.13-11.5,3.89"/>
			<path class="st2" d="M66.8,267.36c-0.98,0.69-1.88,1.25-2.64,1.64"/>
			<path class="st2" d="M83.62,252.47c0,0-7.72,7.72-14.03,12.78"/>
			<g>
				<path class="st6" d="M92.25,232.95c0,0-13.22-7.02-19.59-8.98c-6.37-1.96-8.65-2.29-10.12-1.96c-1.47,0.33-7.18,6.2-7.67,4.57
					c-0.49-1.63,1.8-12.08,2.45-14.36c0.65-2.29,10.61-5.06,13.38-5.88s16.65,4.57,19.75,5.55c3.1,0.98,6.04,4.57,6.04,7.02
					C96.5,221.36,92.25,232.95,92.25,232.95z"/>
				<path class="st2" d="M58.56,215.68c0,0,2.67-2.13,4.27-1.07c1.6,1.07,28.49,16.22,28.49,16.22l1.37-14.08"/>
			</g>
			<g>
				<g>
					<path class="st7" d="M96.5,172.83c0,0,2.32,6.96,2.32,8.73c0,1.77-0.82,4.64-0.27,5.73c0.55,1.09,3.82,6.14,3.28,6.96
						c-0.55,0.82-2.59,3.82-2.59,3.82s-0.55,10.24-1.09,11.33c-0.55,1.09-4.09,0.96-5.73,0.96c-1.64,0-3.41,0-3.41,0
						s3,20.2,2.32,20.47c-0.68,0.27-20.2-19.65-20.2-19.65l0.68-14.6c0,0-6.82-10.1-5.73-14.6c1.09-4.5,11.74-8.05,17.47-9.55
						C89.27,170.92,96.5,172.83,96.5,172.83z"/>
					<path class="st8" d="M94.99,188.2c0.19,1.04-0.1,1.96-0.66,2.07c-0.56,0.1-1.16-0.65-1.36-1.69s0.1-1.96,0.66-2.07
						C94.18,186.41,94.79,187.16,94.99,188.2z"/>
					<path class="st2" d="M91.32,184.57c0,0,2.05-2.46,4.91-1.36"/>
					<path class="st2" d="M89.27,195.76c0,0,2.05,3,5.73,3.55"/>
				</g>
				<path class="st9" d="M74.26,191.26c0,0,3.55,0.55,3.55-0.41c0-0.96-0.41-4.5-0.41-4.5s4.78-3.82,4.64-5.6
					c-0.14-1.77-2.32-3.28-2.18-3.82s6.55-2.46,11.74-2.46c5.19,0,6.28,1.09,7.92-1.36c1.64-2.46,2.87-5.73-0.27-9.14
					c-3.14-3.41-4.64-1.91-6.28-2.32c-1.64-0.41-6.41-5.19-9.69-4.09c-3.28,1.09-3.68,4.09-3.68,4.09s-6.14-4.09-8.73-1.91
					c-2.59,2.18-2.87,4.64-2.87,4.64s-3.96,0.14-5.73,3.82s-1.64,5.73-1.64,5.73s-3.41,2.05-3.28,5.05c0.14,3,1.09,4.37,1.09,4.37
					s-2.87,1.23,0,5.6c2.87,4.37,3.96,4.91,3.96,4.91s-3.28,0.41,0,3.14c3.28,2.73,9.28,3.82,10.65,4.5
					c1.36,0.68,1.64-3.82,1.64-6.55C74.67,192.21,74.26,191.26,74.26,191.26z"/>
				<path class="st7" d="M76.44,192.62c0,0-3.55-4.64-5.46-3.14c-1.91,1.5-0.68,8.05,1.36,10.1c2.05,2.05,5.05-1.5,5.05-1.5"/>
				<polygon class="st9" points="89,210.36 83.11,210.26 89.97,217.28 				"/>
			</g>
			<g>
				<path class="st6" d="M74.62,227.56l27.98,12.89l23.07-31.08c0,0-0.33-7.83,0-8.98c0.33-1.14,3.1-5.22,3.59-5.88
					c0.49-0.65,1.47,0,1.63,0.98c0.16,0.98-0.49,1.8-0.82,2.61c-0.33,0.82-0.98,2.61-0.98,2.61l0.82,2.45l8.65-6.86
					c0,0,1.96-2.61,2.61-1.47l0,0c0.4,0.69,0.34,1.56-0.13,2.2l-3.95,5.31l2.61,0.16l6.37-5.39c0,0,1.14-0.49,1.31,0.98l0,0
					c0.1,0.92-0.24,1.84-0.92,2.48l-3.9,3.64l-2.52,1.55l7.51-3.1c0,0,0.98,0.98,0.65,1.47l-8.16,6.37l6.04-0.98
					c0,0,0.82,1.14,0.33,1.8l-16.65,4.73c0,0-23.23,43.65-23.56,44.3c-0.33,0.65-3.75,2.12-6.37,1.31
					c-2.61-0.82-35.98-15.34-35.98-15.34"/>
				<path class="st7" d="M117.55,239.01c6.03-11.33,12.21-22.94,12.21-22.94l16.65-4.73c0.49-0.65-0.33-1.8-0.33-1.8l-6.04,0.98
					l8.16-6.37c0.33-0.49-0.65-1.47-0.65-1.47l-7.51,3.1l2.52-1.55l3.9-3.64c0.68-0.63,1.02-1.55,0.92-2.48
					c-0.16-1.47-1.31-0.98-1.31-0.98l-6.37,5.39l-2.61-0.16l3.95-5.31c0.48-0.64,0.53-1.5,0.13-2.2l0,0
					c-0.65-1.14-2.61,1.47-2.61,1.47l-8.65,6.86l-0.82-2.45c0,0,0.65-1.8,0.98-2.61c0.33-0.82,0.98-1.63,0.82-2.61
					c-0.16-0.98-1.14-1.63-1.63-0.98c-0.49,0.65-3.26,4.73-3.59,5.88c-0.33,1.14,0,8.98,0,8.98l-17.12,23.06L117.55,239.01z"/>
			</g>
		</g>
	</g>
	<g>
		<g>
			<path class="st6" d="M434.85,225.46l-31.76,13.34l-26.19-32.16c0,0,0.37-8.11,0-9.29s-3.52-5.41-4.08-6.08s-1.67,0-1.85,1.01
				c-0.19,1.01,0.56,1.86,0.93,2.7c0.37,0.84,1.11,2.7,1.11,2.7l-0.93,2.53l-9.82-7.09c0,0-2.22-2.7-2.96-1.52l0,0
				c-0.45,0.72-0.39,1.61,0.15,2.28l4.48,5.5l-2.96,0.17l-7.23-5.57c0,0-1.3-0.51-1.48,1.01l0,0c-0.12,0.96,0.27,1.91,1.04,2.56
				l4.43,3.77l2.87,1.6l-8.52-3.21c0,0-1.11,1.01-0.74,1.52l9.26,6.59l-6.86-1.01c0,0-0.93,1.18-0.37,1.86l18.9,4.9
				c0,0,26.37,45.17,26.74,45.84s4.26,2.2,7.23,1.35c2.96-0.84,40.84-15.88,40.84-15.88"/>
			<path class="st7" d="M386.12,237.3c-6.84-11.73-13.86-23.74-13.86-23.74l-18.9-4.9c-0.56-0.68,0.37-1.86,0.37-1.86l6.86,1.01
				l-9.26-6.59c-0.37-0.51,0.74-1.52,0.74-1.52l8.52,3.21l-2.87-1.6l-4.43-3.77c-0.77-0.66-1.16-1.61-1.04-2.56
				c0.19-1.52,1.48-1.01,1.48-1.01l7.23,5.57l2.96-0.17l-4.48-5.5c-0.54-0.66-0.6-1.56-0.15-2.28h0c0.74-1.18,2.96,1.52,2.96,1.52
				l9.82,7.09l0.93-2.53c0,0-0.74-1.86-1.11-2.7c-0.37-0.84-1.11-1.69-0.93-2.7c0.19-1.01,1.3-1.69,1.85-1.01
				c0.56,0.68,3.71,4.9,4.08,6.08c0.37,1.18,0,9.29,0,9.29l19.43,23.87L386.12,237.3z"/>
			<path class="st2" d="M372.08,200.22c0,0-1.85,1.42-2.43,2.74c-0.58,1.32,2.03,4.5,3.2,5.04"/>
		</g>
		<g>
			<g>
				<ellipse class="st7" cx="338.2" cy="176.01" rx="51.07" ry="46.56"/>
			</g>
			<g>
				<ellipse class="st7" cx="338.2" cy="176.01" rx="42.89" ry="39.1"/>
			</g>
			<g>
				<path class="st8" d="M329.39,211.6l1.45-6.23c5.08,0.8,9.2,0.06,12.34-2.22c3.14-2.28,5.45-6.15,6.93-11.6l-9.98-3.61
					c-0.62,2.21-1.31,4.03-2.08,5.44c-0.76,1.41-1.65,2.41-2.65,2.98c-1,0.58-2.17,0.73-3.49,0.48c-1.52-0.29-2.45-0.94-2.81-1.94
					c-0.36-1-0.4-2.08-0.13-3.24c0.53-2.28,1.55-4.07,3.06-5.39c1.51-1.32,3.45-2.56,5.82-3.73l7.38-3.68
					c1.7-0.93,3.26-1.91,4.68-2.94c1.42-1.03,2.64-2.29,3.68-3.76c1.04-1.48,1.81-3.31,2.32-5.5c0.98-4.19,0.43-7.72-1.64-10.57
					c-2.07-2.85-5.27-4.86-9.61-6.03l1.39-5.96l-3.52-0.68l-1.39,5.96c-2.68-0.38-4.97-0.25-6.88,0.38
					c-1.91,0.63-3.48,1.59-4.7,2.87c-1.22,1.28-2.22,2.74-3.02,4.38c-0.79,1.64-1.43,3.26-1.9,4.84l10.17,3.44
					c0.43-1.64,0.92-3.07,1.46-4.3c0.54-1.22,1.21-2.13,2.02-2.72c0.8-0.59,1.86-0.73,3.17-0.43c1.36,0.31,2.29,1,2.78,2.08
					c0.49,1.07,0.6,2.19,0.33,3.35c-0.48,2.05-1.4,3.6-2.77,4.64c-1.37,1.04-2.87,2.01-4.51,2.9l-7.22,3.64
					c-1.93,1.03-3.76,2.19-5.5,3.48c-1.73,1.3-3.24,2.81-4.51,4.55c-1.27,1.74-2.2,3.83-2.77,6.28c-0.55,2.37-0.53,4.62,0.07,6.77
					c0.6,2.15,1.75,4.01,3.45,5.6c1.7,1.59,3.87,2.76,6.51,3.5l-1.47,6.29L329.39,211.6z"/>
			</g>
		</g>
		<g>
			<g>
				<path class="st7" d="M377.99,428.48l-13.48,8.7c0,0-8.12,1.52-9.16,2.28c-1.04,0.76-1.04,3.99-1.04,3.99s8.33,0.95,16.04,1.14
					c7.71,0.19,11.66,0,17.7-0.19c6.04-0.19,11.04,0.19,12.29-1.14c1.25-1.33,0.03-12.92,0.03-12.92S386.25,423.38,377.99,428.48z"
					/>
				<path class="st7" d="M370.34,444.58c-7.71-0.19-16.04-1.14-16.04-1.14s0-1,0.18-2.03c8.63,0.64,24.63,1.65,28.98,0.7
					c4.94-1.09,14.21-1.54,17.41-1.67c-0.05,1.38-0.21,2.46-0.54,2.81c-1.25,1.33-6.25,0.95-12.29,1.14S378.05,444.77,370.34,444.58
					z"/>
			</g>
			<g>
				<path class="st7" d="M455.22,433.76l-7.08,8.16l-12.29,7.03c-0.83,2.28-0.42,2.85-0.21,3.61c0.21,0.76,3.96,0.95,8.54,0.76
					c4.58-0.19,15.83,1.14,19.16,0.19c3.33-0.95,13.95-3.61,15.2-4.18c1.25-0.57,3.33-1.14,2.71-3.23
					c-0.62-2.09-2.46-9.41-2.46-9.41S468.55,429.96,455.22,433.76z"/>
				<path class="st7" d="M444.18,453.32c-4.58,0.19-8.33,0-8.54-0.76c-0.15-0.53-0.39-0.99-0.23-2c5.69,0.22,20.43,0.74,24.6,0.29
					c4.76-0.52,18.58-5.17,20.9-5.96c0.13,0.49,0.25,0.91,0.34,1.21c0.62,2.09-1.46,2.66-2.71,3.23c-1.25,0.57-11.87,3.23-15.2,4.18
					C460.01,454.46,448.76,453.13,444.18,453.32z"/>
			</g>
			<path class="st9" d="M464.2,301.86l-5.9,65.14l18.31,60.15l2.62,9.54c0,0-2.03,1.59-7.56,1.32c-5.52-0.27-16.57-2.65-16.57-2.65
				s-1.45-2.39-1.16-4.5c0.29-2.12,1.45-2.92,1.45-3.71S430.98,367,430.98,367l-2.33-34.45l-16.57,38.42l-10.75,59.36
				c0,0-0.58,2.92-1.45,2.65c-0.87-0.26-15.41-5.03-15.41-5.03l-5.52,0.53c0,0-0.58-7.68,1.74-9.27c2.33-1.59,3.2-3.18,3.2-3.18
				l2.33-56.44l22.67-58.03l2.03-7.15l52.32,2.65L464.2,301.86z"/>
			<polygon class="st6" points="464.2,301.86 463.73,305.41 408.89,301.54 411.25,296.88 			"/>
			<path class="st6" d="M470.32,220.61c0,0,3.34,10.3,2.96,15.03c-0.37,4.73-6.86,42.06-6.86,42.06l-2.41,14.36
				c0,0,1.85,4.39,1.67,5.41c-0.19,1.01,0.19,3.72-1.48,4.39c-1.67,0.68-15.75-0.17-30.2-0.51c-14.45-0.34-20.01-0.84-21.86-1.52
				c-1.85-0.68-4.08-3.04-3.71-4.9c0.37-1.86,1.85-5.24,1.85-5.24s0.74-45.1,1.85-52.03c1.11-6.93,2.41-16.39,6.3-19.93
				s10.38-5.07,10.38-5.07l5.19,8.78c0,0,17.79-6.59,24.27-7.26C464.76,213.51,470.32,220.61,470.32,220.61z"/>
			<path class="st2" d="M459.44,253.5c2.41,0.68,4.4,1.2,5.36,1.34"/>
			<path class="st2" d="M443.02,248.5c0,0,6.91,2.2,13.05,4.02"/>
			<path class="st2" d="M460.3,265.85c1.11,0.71,2.13,1.3,3,1.69"/>
			<path class="st2" d="M441.2,250.44c0,0,8.76,7.99,15.93,13.23"/>
			<g>
				<path class="st6" d="M431.41,230.24c0,0,15.01-7.26,22.23-9.29c7.23-2.03,9.82-2.36,11.49-2.03c1.67,0.34,8.15,6.42,8.71,4.73
					c0.56-1.69-2.04-12.5-2.78-14.87c-0.74-2.36-12.04-5.24-15.19-6.08c-3.15-0.84-18.9,4.73-22.42,5.74
					c-3.52,1.01-6.86,4.73-6.86,7.26C426.59,218.24,431.41,230.24,431.41,230.24z"/>
				<path class="st2" d="M469.65,212.36c0,0-3.03-2.21-4.84-1.1c-1.82,1.1-32.34,16.78-32.34,16.78l-1.55-14.58"/>
			</g>
			<g>
				<g>
					<path class="st7" d="M426.58,168.02c0,0-2.63,7.2-2.63,9.04c0,1.84,0.93,4.8,0.31,5.93c-0.62,1.13-4.34,6.36-3.72,7.2
						c0.62,0.85,2.94,3.95,2.94,3.95s0.62,10.59,1.24,11.72c0.62,1.13,4.65,0.99,6.51,0.99s3.87,0,3.87,0s-3.41,20.9-2.63,21.19
						c0.77,0.28,22.93-20.34,22.93-20.34l-0.77-15.11c0,0,7.75-10.45,6.51-15.11s-13.32-8.33-19.83-9.89
						C434.79,166.04,426.58,168.02,426.58,168.02z"/>
					<path class="st8" d="M428.3,183.92c-0.22,1.07,0.11,2.03,0.75,2.14c0.63,0.11,1.32-0.68,1.54-1.75
						c0.22-1.07-0.11-2.03-0.75-2.14C429.21,182.07,428.52,182.85,428.3,183.92z"/>
					<path class="st2" d="M432.47,180.16c0,0-2.32-2.54-5.58-1.41"/>
					<path class="st2" d="M434.79,191.75c0,0-2.32,3.11-6.51,3.67"/>
				</g>
				<path class="st9" d="M451.83,187.08c0,0-4.03,0.56-4.03-0.42s0.46-4.66,0.46-4.66s-5.42-3.95-5.27-5.79
					c0.15-1.84,2.63-3.39,2.48-3.95c-0.15-0.56-7.44-2.54-13.32-2.54c-5.89,0-7.13,1.13-8.99-1.41c-1.86-2.54-3.25-5.93,0.31-9.46
					c3.56-3.53,5.27-1.98,7.13-2.4s7.28-5.37,11-4.24c3.72,1.13,4.18,4.24,4.18,4.24s6.97-4.24,9.91-1.98
					c2.94,2.26,3.25,4.8,3.25,4.8s4.49,0.14,6.51,3.95c2.01,3.81,1.86,5.93,1.86,5.93s3.87,2.12,3.72,5.23
					c-0.15,3.11-1.24,4.52-1.24,4.52s3.25,1.27,0,5.79c-3.25,4.52-4.49,5.08-4.49,5.08s3.72,0.42,0,3.25
					c-3.72,2.82-10.53,3.95-12.08,4.66c-1.55,0.71-1.86-3.95-1.86-6.78C451.37,188.07,451.83,187.08,451.83,187.08z"/>
				<path class="st7" d="M449.35,188.5c0,0,4.03-4.8,6.2-3.25c2.17,1.55,0.77,8.33-1.55,10.45c-2.32,2.12-5.73-1.55-5.73-1.55"/>
				<polygon class="st9" points="435.1,206.86 441.78,206.76 434,214.02 				"/>
			</g>
			<g>
				<path class="st6" d="M451.42,224.66L419.65,238l-26.19-32.16c0,0,0.37-8.11,0-9.29c-0.37-1.18-3.52-5.41-4.08-6.08
					c-0.56-0.68-1.67,0-1.85,1.01c-0.19,1.01,0.56,1.86,0.93,2.7c0.37,0.84,1.11,2.7,1.11,2.7l-0.93,2.53l-9.82-7.09
					c0,0-2.22-2.7-2.96-1.52l0,0c-0.45,0.72-0.39,1.61,0.15,2.28l4.48,5.5l-2.96,0.17l-7.23-5.57c0,0-1.3-0.51-1.48,1.01l0,0
					c-0.12,0.96,0.27,1.91,1.04,2.56l4.43,3.77l2.87,1.6l-8.52-3.21c0,0-1.11,1.01-0.74,1.52l9.26,6.59l-6.86-1.01
					c0,0-0.93,1.18-0.37,1.86l18.9,4.9c0,0,26.37,45.17,26.74,45.84c0.37,0.68,4.26,2.2,7.23,1.35
					c2.96-0.84,40.84-15.88,40.84-15.88"/>
				<path class="st7" d="M402.69,236.51c-6.84-11.73-13.86-23.74-13.86-23.74l-18.9-4.9c-0.56-0.68,0.37-1.86,0.37-1.86l6.86,1.01
					l-9.26-6.59c-0.37-0.51,0.74-1.52,0.74-1.52l8.52,3.21l-2.87-1.6l-4.43-3.77c-0.77-0.66-1.16-1.61-1.04-2.56
					c0.19-1.52,1.48-1.01,1.48-1.01l7.23,5.57l2.96-0.17l-4.48-5.5c-0.54-0.66-0.6-1.56-0.15-2.28l0,0
					c0.74-1.18,2.96,1.52,2.96,1.52l9.82,7.09l0.93-2.53c0,0-0.74-1.86-1.11-2.7c-0.37-0.84-1.11-1.69-0.93-2.7
					c0.19-1.01,1.3-1.69,1.85-1.01c0.56,0.68,3.71,4.9,4.08,6.08c0.37,1.18,0,9.29,0,9.29l19.43,23.87L402.69,236.51z"/>
			</g>
		</g>
	</g>
	<g>
		<g>
			<path class="st10" d="M353.03,107.49v303.05c0,8.32-6.74,15.06-15.06,15.06H207.03c-8.32,0-15.06-6.74-15.06-15.06V107.49
				c0-8.31,6.74-15.05,15.05-15.05h56.21l0.05,0.17c1.4,5.04,4.63,8.32,8.2,8.32h2.05c3.58,0,6.8-3.28,8.2-8.32l0.05-0.17h56.19
				C346.29,92.43,353.03,99.18,353.03,107.49z"/>
		</g>
		<g>
			<path class="st9" d="M353.03,116.07v-8.58c0-8.32-6.74-15.06-15.06-15.06h-56.19l-0.05,0.17c-1.4,5.04-4.63,8.32-8.2,8.32h-2.05
				c-3.58,0-6.8-3.28-8.2-8.32l-0.05-0.17h-56.21c-8.31,0-15.05,6.74-15.05,15.05v8.59H353.03z"/>
			<path class="st9" d="M191.97,402.45v8.09c0,8.32,6.74,15.06,15.06,15.06h130.95c8.32,0,15.06-6.74,15.06-15.06v-8.09H191.97z"/>
		</g>
		<g>
			<path class="st11" d="M363.28,179.88v-30.27h-2.74v-38.75c0-13.19-10.69-23.89-23.89-23.89h-128.3
				c-13.19,0-23.89,10.69-23.89,23.89v307.92c0,13.19,10.69,23.89,23.89,23.89h128.3c13.19,0,23.89-10.69,23.89-23.89V205.67h2.74
				v-17.89h-2.74v-7.91H363.28z M353.03,401.72c0,13.2-10.7,23.89-23.89,23.89H215.85c-13.19,0-23.89-10.69-23.89-23.89v-285.4
				c0-13.19,10.7-23.88,23.89-23.88h47.37l0.05,0.17c1.4,5.04,4.63,8.32,8.2,8.32h2.05c3.58,0,6.8-3.28,8.2-8.32l0.05-0.17h47.36
				c13.19,0,23.89,10.69,23.89,23.88V401.72z"/>
			<path class="st12" d="M334.74,90.26H210.26c-12.72,0-23.04,10.31-23.04,23.04v303.04c0,12.72,10.31,23.04,23.04,23.04h124.47
				c12.72,0,23.04-10.31,23.04-23.04V113.3C357.77,100.58,347.46,90.26,334.74,90.26z M353.03,402.57
				c0,12.72-10.31,23.04-23.04,23.04H215.01c-12.72,0-23.04-10.31-23.04-23.04v-287.1c0-12.72,10.31-23.03,23.03-23.03h48.23
				l0.05,0.17c1.4,5.04,4.63,8.32,8.2,8.32h2.05c3.58,0,6.8-3.28,8.2-8.32l0.05-0.17h48.21c12.72,0,23.04,10.31,23.04,23.04V402.57z
				"/>
			<path class="st13" d="M274.25,93.58c0-1.24-1-2.24-2.24-2.24c-1.24,0-2.24,1-2.24,2.24c0,1.24,1,2.24,2.24,2.24
				C273.25,95.82,274.25,94.81,274.25,93.58z"/>
			<g>
				<g>
					<path class="st13" d="M206.28,102.17c0,2.27-2.55,3.09-2.56,4.82v0.12h2.47v0.76h-3.3v-0.65c0-2.43,2.55-2.9,2.55-5.02
						c0-0.77-0.26-1.18-0.88-1.18c-0.61,0-0.88,0.44-0.88,1.11v0.67h-0.78v-0.61c0-1.15,0.53-1.91,1.69-1.91
						C205.76,100.27,206.28,101.02,206.28,102.17z"/>
					<path class="st13" d="M210.4,102.16v0.19c0,0.77-0.31,1.32-0.91,1.55c0.63,0.24,0.91,0.81,0.91,1.56v0.58
						c0,1.15-0.54,1.9-1.7,1.9c-1.15,0-1.69-0.75-1.69-1.9v-0.52h0.78v0.57c0,0.68,0.28,1.09,0.88,1.09c0.61,0,0.88-0.4,0.88-1.16
						v-0.58c0-0.74-0.31-1.1-0.95-1.12h-0.45v-0.75h0.49c0.56-0.02,0.9-0.38,0.9-1.03v-0.34c0-0.77-0.27-1.17-0.88-1.17
						c-0.6,0-0.88,0.42-0.88,1.1v0.39h-0.78v-0.34c0-1.15,0.54-1.89,1.69-1.89C209.86,100.27,210.4,101.01,210.4,102.16z"/>
					<path class="st13" d="M212.03,102.73v1.04h-0.81v-1.04H212.03z M212.03,106.82v1.04h-0.81v-1.04H212.03z"/>
					<path class="st13" d="M213.73,103.41c0.24-0.41,0.61-0.62,1.12-0.62c0.97,0,1.4,0.71,1.4,1.78v1.47c0,1.15-0.55,1.9-1.7,1.9
						c-1.15,0-1.69-0.75-1.69-1.9v-0.51h0.78v0.56c0,0.68,0.28,1.09,0.88,1.09c0.6,0,0.88-0.41,0.88-1.09v-1.46
						c0-0.68-0.28-1.09-0.88-1.09c-0.46,0-0.77,0.26-0.85,0.81v0.17h-0.78l0.2-4.18h2.97v0.75h-2.22L213.73,103.41z"/>
					<path class="st13" d="M220.43,102.15v0.14h-0.78v-0.19c0-0.68-0.28-1.08-0.89-1.08c-0.63,0-0.91,0.41-0.91,1.21v1.69
						c0.2-0.52,0.61-0.81,1.21-0.81c0.97,0,1.4,0.7,1.4,1.78v1.14c0,1.15-0.57,1.9-1.72,1.9c-1.16,0-1.73-0.75-1.73-1.9v-3.84
						c0-1.19,0.54-1.94,1.73-1.94C219.89,100.27,220.43,101,220.43,102.15z M217.83,104.96v1.13c0,0.68,0.28,1.09,0.89,1.09
						c0.6,0,0.89-0.41,0.89-1.09v-1.13c0-0.68-0.29-1.09-0.89-1.09C218.11,103.88,217.83,104.29,217.83,104.96z"/>
				</g>
				<g>
					<rect x="300.46" y="102.48" class="st13" width="2.12" height="5.31"/>
					<rect x="303.3" y="101.41" class="st13" width="2.13" height="6.38"/>
					<rect x="306.13" y="100.66" class="st13" width="2.13" height="7.13"/>
					<rect x="308.96" y="99.34" class="st13" width="2.12" height="8.45"/>
					<g>
						<g>
							<path class="st13" d="M337.39,107.65h-12.75v-7.79h12.75V107.65z M325.35,106.94h11.33v-6.38h-11.33V106.94z"/>
						</g>
						<g>
							<rect x="326.41" y="101.33" class="st13" width="6.73" height="4.83"/>
						</g>
						<g>
							<rect x="336.94" y="102.83" class="st13" width="1.6" height="1.84"/>
						</g>
					</g>
					<g>
						<path class="st13" d="M319.96,105.95c-0.08,0-0.17-0.02-0.24-0.07c-2.59-1.54-4.31-0.11-4.38-0.05
							c-0.2,0.17-0.5,0.15-0.67-0.05c-0.17-0.2-0.15-0.5,0.04-0.67c0.09-0.08,2.29-1.96,5.5-0.05c0.23,0.13,0.3,0.43,0.17,0.65
							C320.28,105.87,320.12,105.95,319.96,105.95z"/>
					</g>
					<g>
						<path class="st13" d="M320.92,104.35c-0.08,0-0.17-0.02-0.24-0.07c-3.75-2.23-6.27-0.07-6.3-0.05
							c-0.2,0.17-0.5,0.15-0.67-0.04c-0.17-0.2-0.16-0.5,0.04-0.67c0.03-0.03,3.07-2.63,7.42-0.05c0.23,0.13,0.3,0.43,0.17,0.65
							C321.24,104.27,321.08,104.35,320.92,104.35z"/>
					</g>
					<g>
						<path class="st13" d="M321.79,102.5c-0.08,0-0.17-0.02-0.24-0.07c-4.75-2.83-7.91-0.17-8.04-0.05
							c-0.2,0.17-0.5,0.15-0.67-0.05c-0.17-0.2-0.15-0.5,0.04-0.67c0.04-0.03,3.79-3.24,9.16-0.05c0.23,0.13,0.3,0.43,0.17,0.65
							C322.11,102.41,321.95,102.5,321.79,102.5z"/>
					</g>
					<g>
						<path class="st13" d="M318.53,106.75c0,0.66-0.53,1.19-1.19,1.19c-0.66,0-1.19-0.53-1.19-1.19c0-0.66,0.53-1.19,1.19-1.19
							C317.99,105.55,318.53,106.09,318.53,106.75z"/>
					</g>
				</g>
			</g>
		</g>
	</g>
	<g>
		<path class="st11" d="M333.81,335.4H211.74c-3.96,0-7.17-3.21-7.17-7.17v-70.29c0-3.96,3.21-7.17,7.17-7.17h122.07
			c3.96,0,7.17,3.21,7.17,7.17v70.29C340.99,332.19,337.77,335.4,333.81,335.4z"/>
		<rect x="215.03" y="317.47" class="st8" width="14.44" height="5.97"/>
		<rect x="234.2" y="317.47" class="st8" width="14.44" height="5.97"/>
		<rect x="253.36" y="317.47" class="st8" width="14.44" height="5.97"/>
		<rect x="272.53" y="317.47" class="st8" width="14.44" height="5.97"/>
		<rect x="291.7" y="317.47" class="st8" width="14.44" height="5.97"/>
		<rect x="310.87" y="317.47" class="st8" width="14.44" height="5.97"/>
		<path class="st10" d="M243.08,303.53h-24.74c-1.83,0-3.31-1.48-3.31-3.31v-16.78c0-1.83,1.48-3.31,3.31-3.31h24.74
			c1.83,0,3.31,1.48,3.31,3.31v16.78C246.39,302.05,244.91,303.53,243.08,303.53z"/>
		<rect x="215.03" y="260.72" class="st8" width="68.7" height="3.48"/>
	</g>
	<g>
		<g>
			<g>
				
					<ellipse transform="matrix(0.2264 -0.974 0.974 0.2264 28.6124 405.1373)" class="st8" cx="269.37" cy="184.56" rx="34.13" ry="34.13"/>
			</g>
			<g>
				<path class="st10" d="M269.76,216.39v-5.56c-4.1-0.16-7.17-1.47-9.2-3.94c-2.03-2.47-3.13-6.15-3.28-11.05l8.42-1.43
					c0.08,1.99,0.29,3.65,0.63,4.99c0.34,1.33,0.85,2.33,1.52,2.99c0.68,0.66,1.55,0.99,2.63,0.99c1.23,0,2.08-0.4,2.54-1.19
					c0.46-0.8,0.69-1.71,0.69-2.75c0-2.03-0.47-3.73-1.4-5.11c-0.94-1.37-2.22-2.76-3.85-4.15l-5.08-4.36
					c-1.16-1.08-2.19-2.17-3.11-3.29c-0.92-1.11-1.64-2.39-2.18-3.82c-0.54-1.43-0.81-3.13-0.81-5.08c0-3.74,1.06-6.66,3.2-8.75
					c2.13-2.09,4.99-3.28,8.57-3.55V156h2.87v5.32c2.15,0.12,3.91,0.61,5.29,1.46c1.37,0.86,2.42,1.93,3.14,3.23
					c0.72,1.29,1.23,2.71,1.55,4.24c0.32,1.53,0.52,3.02,0.6,4.45l-8.54,1.25c-0.04-1.47-0.16-2.78-0.36-3.91
					c-0.2-1.13-0.56-2.02-1.07-2.66c-0.52-0.64-1.31-0.94-2.39-0.9c-1.12,0.04-1.96,0.48-2.54,1.31c-0.58,0.84-0.87,1.77-0.87,2.81
					c0,1.83,0.44,3.31,1.31,4.42c0.88,1.12,1.87,2.19,2.99,3.23l4.96,4.3c1.31,1.19,2.53,2.49,3.65,3.88
					c1.11,1.39,2.01,2.94,2.69,4.63c0.68,1.69,1.02,3.63,1.02,5.82c0,2.11-0.43,4.03-1.28,5.76c-0.86,1.73-2.09,3.14-3.7,4.21
					c-1.61,1.08-3.52,1.71-5.71,1.91v5.61H269.76z"/>
			</g>
		</g>
		<circle class="st11" cx="296.15" cy="166.16" r="9.67"/>
		<g>
			<path class="st8" d="M296.12,170.37c-0.01,0-0.03,0-0.04,0c-0.4-0.01-0.77-0.2-1.01-0.52l-4.77-6.17
				c-0.45-0.58-0.34-1.42,0.24-1.87c0.58-0.45,1.42-0.34,1.87,0.24l3.78,4.89l9.88-11.4c0.48-0.56,1.32-0.62,1.88-0.13
				c0.56,0.48,0.61,1.32,0.13,1.88l-10.95,12.63C296.87,170.2,296.5,170.37,296.12,170.37z"/>
		</g>
	</g>
</g>
</svg>
